<?xml version="1.0" encoding="UTF-8"?>
<svg id="_ëîé_1" data-name="‘ëîé_1" xmlns="http://www.w3.org/2000/svg" viewBox="0 0 3092.68 2000">
  <defs>
    <style>
      .cls-1 {
        fill: #060633;
      }

      .cls-1, .cls-2, .cls-3, .cls-4, .cls-5, .cls-6, .cls-7, .cls-8, .cls-9, .cls-10, .cls-11, .cls-12, .cls-13, .cls-14, .cls-15, .cls-16, .cls-17, .cls-18, .cls-19, .cls-20, .cls-21, .cls-22, .cls-23, .cls-24, .cls-25, .cls-26, .cls-27, .cls-28, .cls-29, .cls-30, .cls-31, .cls-32, .cls-33, .cls-34, .cls-35, .cls-36 {
        stroke-width: 0px;
      }

      .cls-2 {
        fill: #d48d6c;
      }

      .cls-3 {
        opacity: .4;
      }

      .cls-3, .cls-24 {
        fill: #fff;
      }

      .cls-4 {
        fill: #020202;
      }

      .cls-5 {
        fill: #749fbb;
      }

      .cls-37 {
        letter-spacing: 0em;
      }

      .cls-6 {
        fill: #a0bab5;
      }

      .cls-7 {
        fill: #d18b6b;
      }

      .cls-8 {
        fill: #3c3a5b;
      }

      .cls-9 {
        fill: #b5c7c5;
      }

      .cls-10 {
        fill: #56335b;
      }

      .cls-38 {
        opacity: .5;
      }

      .cls-11 {
        fill: #050731;
      }

      .cls-12 {
        fill: #df8d78;
      }

      .cls-39 {
        letter-spacing: -.04em;
      }

      .cls-13 {
        fill: #d5886f;
      }

      .cls-14 {
        fill: #ee7e90;
      }

      .cls-15 {
        fill: #ebf7f5;
      }

      .cls-40 {
        letter-spacing: -.08em;
      }

      .cls-16 {
        fill: #2f1a31;
      }

      .cls-17 {
        fill: #6f4975;
      }

      .cls-18 {
        fill: #44474e;
      }

      .cls-41 {
        letter-spacing: 0em;
      }

      .cls-19 {
        opacity: .7;
      }

      .cls-19, .cls-20 {
        fill: #ead8b2;
      }

      .cls-21 {
        fill: #7d9fb9;
      }

      .cls-42 {
        letter-spacing: -.01em;
      }

      .cls-22 {
        fill: #cfd1a7;
      }

      .cls-23 {
        fill: #c1d3da;
      }

      .cls-43 {
        letter-spacing: 0em;
      }

      .cls-44 {
        opacity: .3;
      }

      .cls-25 {
        fill: #fffff8;
      }

      .cls-26 {
        fill: #694b72;
      }

      .cls-27 {
        fill: #cc7152;
      }

      .cls-45 {
        letter-spacing: 0em;
      }

      .cls-28 {
        fill: #f3b484;
      }

      .cls-46 {
        letter-spacing: .01em;
      }

      .cls-29 {
        fill: #c4c499;
      }

      .cls-47 {
        letter-spacing: 0em;
      }

      .cls-48 {
        letter-spacing: .01em;
      }

      .cls-30 {
        fill: #db8764;
      }

      .cls-49 {
        font-family: MyriadPro-Regular, 'Myriad Pro';
        font-size: 48px;
      }

      .cls-31 {
        fill: #436e8c;
      }

      .cls-50 {
        letter-spacing: .02em;
      }

      .cls-51 {
        letter-spacing: 0em;
      }

      .cls-52 {
        letter-spacing: 0em;
      }

      .cls-32 {
        fill: #e08469;
      }

      .cls-53 {
        letter-spacing: 0em;
      }

      .cls-33 {
        fill: #2c1b30;
      }

      .cls-34 {
        fill: #ca6a54;
      }

      .cls-54 {
        letter-spacing: -.01em;
      }

      .cls-55 {
        letter-spacing: 0em;
      }

      .cls-56 {
        letter-spacing: 0em;
      }

      .cls-57 {
        letter-spacing: 0em;
      }

      .cls-58 {
        letter-spacing: .02em;
      }

      .cls-59 {
        letter-spacing: .03em;
      }

      .cls-60 {
        letter-spacing: 0em;
      }

      .cls-35 {
        fill: #edb78c;
      }

      .cls-36 {
        fill: #de8965;
      }
    </style>
  </defs>
  <rect class="cls-19" x="546.34" y="-546.34" width="2000" height="3092.68" transform="translate(2546.34 -546.34) rotate(90)"/>
  <path class="cls-12" d="M2843.58,171.12c27.02,0,48.99,21.98,48.99,48.99s-21.98,48.99-48.99,48.99h-187.09c-27.02,0-48.99-21.98-48.99-48.99s21.98-48.99,48.99-48.99h187.09ZM2843.58,167.36h-187.09c-29.13,0-52.75,23.62-52.75,52.75h0c0,29.13,23.62,52.75,52.75,52.75h187.09c29.13,0,52.75-23.62,52.75-52.75h0c0-29.13-23.62-52.75-52.75-52.75h0Z"/>
  <g>
    <path class="cls-18" d="M2451.82,232.51v3.69h-21.24v-32.04h4.23v28.35h17.01Z"/>
    <path class="cls-18" d="M2456.72,215.64c2.04-2.22,4.81-3.33,8.32-3.33s6.24,1.07,8.19,3.19c1.95,2.13,2.92,5.12,2.92,8.96s-.97,6.99-2.92,9.18c-1.95,2.19-4.7,3.29-8.24,3.29s-6.32-1.08-8.32-3.24c-2.01-2.16-3.02-5.16-3.02-9s1.02-6.82,3.06-9.04ZM2470.29,217.95c-1.31-1.63-3.08-2.45-5.33-2.45s-4.04.83-5.35,2.48c-1.32,1.65-1.98,3.86-1.98,6.62s.65,5.08,1.96,6.68c1.3,1.61,3.13,2.41,5.47,2.41s4.01-.81,5.29-2.43c1.27-1.62,1.91-3.85,1.91-6.7s-.65-4.96-1.96-6.59Z"/>
    <path class="cls-18" d="M2500.82,212.98v20.7c0,2.01-.11,3.56-.32,4.66-.21,1.09-.6,2.12-1.17,3.08-1.71,2.82-4.77,4.23-9.18,4.23-2.61,0-4.82-.53-6.62-1.6-1.8-1.07-2.85-2.81-3.15-5.24h3.91c.45,2.58,2.45,3.87,5.99,3.87,2.37,0,4.09-.6,5.15-1.8,1.06-1.2,1.63-3.14,1.69-5.81l.04-2.83c-1.47,2.82-3.93,4.23-7.38,4.23-3.12,0-5.6-1.06-7.45-3.19-1.84-2.13-2.77-5-2.77-8.6,0-3.39.92-6.29,2.75-8.71,1.83-2.41,4.38-3.62,7.65-3.62,1.62,0,3.07.35,4.34,1.04,1.27.69,2.27,1.68,2.99,2.97v-3.38h3.51ZM2490.16,215.68c-2.07,0-3.7.8-4.88,2.41-1.19,1.61-1.78,3.82-1.78,6.64,0,2.55.61,4.6,1.84,6.14,1.23,1.55,2.86,2.32,4.91,2.32s3.8-.81,5.02-2.43c1.21-1.62,1.82-3.84,1.82-6.66,0-2.64-.61-4.7-1.82-6.19-1.21-1.48-2.92-2.23-5.11-2.23Z"/>
    <path class="cls-18" d="M2510.59,204.16v4.68h-3.87v-4.68h3.87ZM2510.59,212.98v23.22h-3.87v-23.22h3.87Z"/>
    <path class="cls-18" d="M2520.12,212.98v3.6c1.92-2.82,4.56-4.23,7.92-4.23,2.73,0,4.7.71,5.92,2.14,1.22,1.43,1.82,3.52,1.82,6.28v15.44h-3.83v-13.68c0-1.14-.04-2.03-.11-2.68-.08-.65-.26-1.33-.56-2.07-.3-.73-.81-1.27-1.53-1.6-.72-.33-1.65-.5-2.79-.5-4.41,0-6.62,2.79-6.62,8.37v12.15h-3.83v-23.22h3.6Z"/>
  </g>
  <g>
    <path class="cls-12" d="M2695.43,213.79h-4.09c-.45-4.35-3.11-6.53-7.97-6.53-2.31,0-4.09.47-5.35,1.4-1.26.93-1.89,2.24-1.89,3.91,0,.6.09,1.12.27,1.57.18.45.49.85.92,1.19.43.34.85.64,1.24.88.39.24,1,.48,1.84.72.84.24,1.51.41,2.03.52.51.11,1.3.28,2.38.52,1.32.27,2.41.52,3.29.74.87.22,1.9.59,3.1,1.1,1.2.51,2.15,1.07,2.86,1.69.71.62,1.32,1.43,1.85,2.45.52,1.02.79,2.18.79,3.46,0,2.25-.63,4.13-1.89,5.65-1.26,1.52-2.79,2.57-4.59,3.17-1.8.6-3.8.9-5.99.9-4.02,0-7.24-.95-9.65-2.86-2.42-1.9-3.62-4.72-3.62-8.44h4.1c.09,2.73,1,4.72,2.75,5.96,1.74,1.25,4,1.87,6.8,1.87,2.19,0,4.06-.46,5.62-1.37,1.56-.92,2.34-2.41,2.34-4.48,0-.96-.21-1.78-.63-2.45-.42-.67-1.08-1.23-1.98-1.66-.9-.43-1.8-.79-2.7-1.06-.9-.27-2.09-.57-3.55-.9-.21-.03-.36-.06-.45-.09-3.3-.75-5.46-1.35-6.48-1.8-3.12-1.35-4.68-3.67-4.68-6.98,0-3.06,1.13-5.35,3.4-6.86,2.27-1.51,5-2.27,8.21-2.27,3.51,0,6.31.84,8.41,2.52,2.1,1.68,3.21,4.19,3.33,7.52Z"/>
    <path class="cls-12" d="M2705.29,204.38v4.68h-3.87v-4.68h3.87ZM2705.29,213.2v23.22h-3.87v-23.22h3.87Z"/>
    <path class="cls-12" d="M2731.34,213.2v20.7c0,2.01-.11,3.56-.32,4.66-.21,1.09-.6,2.12-1.17,3.08-1.71,2.82-4.77,4.23-9.18,4.23-2.61,0-4.82-.53-6.62-1.6-1.8-1.07-2.85-2.81-3.15-5.24h3.92c.45,2.58,2.45,3.87,5.99,3.87,2.37,0,4.09-.6,5.15-1.8,1.06-1.2,1.63-3.13,1.69-5.8l.05-2.84c-1.47,2.82-3.93,4.23-7.38,4.23-3.12,0-5.6-1.06-7.45-3.19-1.84-2.13-2.77-5-2.77-8.59,0-3.39.92-6.29,2.75-8.71,1.83-2.41,4.38-3.62,7.65-3.62,1.62,0,3.07.34,4.34,1.03,1.27.69,2.27,1.68,2.99,2.97v-3.38h3.51ZM2720.67,215.9c-2.07,0-3.7.8-4.88,2.41-1.19,1.61-1.78,3.82-1.78,6.64,0,2.55.61,4.6,1.84,6.14,1.23,1.54,2.86,2.32,4.91,2.32s3.8-.81,5.02-2.43c1.21-1.62,1.82-3.84,1.82-6.66,0-2.64-.61-4.7-1.82-6.19-1.21-1.48-2.92-2.23-5.11-2.23Z"/>
    <path class="cls-12" d="M2740.65,213.2v3.6c1.92-2.82,4.56-4.23,7.92-4.23,2.73,0,4.7.71,5.92,2.14,1.22,1.43,1.82,3.52,1.82,6.28v15.43h-3.83v-13.68c0-1.14-.04-2.03-.11-2.68-.08-.64-.26-1.33-.56-2.07-.3-.73-.81-1.27-1.53-1.6-.72-.33-1.65-.49-2.79-.49-4.41,0-6.62,2.79-6.62,8.37v12.15h-3.83v-23.22h3.6Z"/>
    <path class="cls-12" d="M2775.03,204.38h4.28v20.21c0,3.12.67,5.4,2.02,6.84,1.35,1.44,3.56,2.16,6.62,2.16s5.38-.73,6.68-2.21c1.3-1.47,1.96-3.74,1.96-6.79v-20.21h4.28v19.08c0,4.68-.98,8.12-2.92,10.33-1.95,2.21-5.28,3.31-9.99,3.31s-7.85-1.07-9.88-3.22c-2.03-2.14-3.04-5.47-3.04-9.97v-19.53Z"/>
    <path class="cls-12" d="M2810.67,213.2v3.29c1.68-2.67,4.29-4.01,7.83-4.01,3.24,0,5.81,1.1,7.72,3.29,1.91,2.19,2.86,5.16,2.86,8.91s-.94,6.74-2.81,8.98c-1.88,2.24-4.4,3.35-7.58,3.35s-5.92-1.27-7.79-3.83v12.2h-3.83v-32.17h3.6ZM2817.92,215.68c-2.22,0-3.97.8-5.24,2.41-1.28,1.61-1.91,3.82-1.91,6.64s.65,5.03,1.96,6.64c1.31,1.61,3.08,2.41,5.33,2.41s3.92-.81,5.17-2.43c1.26-1.62,1.89-3.83,1.89-6.62s-.64-5.03-1.91-6.64c-1.28-1.6-3.04-2.41-5.29-2.41Z"/>
  </g>
  <rect class="cls-12" x="196.17" y="1205.16" width="332" height="105.5" rx="52.75" ry="52.75"/>
  <g>
    <path class="cls-25" d="M277.82,1241.44h13.68c2.94,0,5.38.65,7.31,1.93,1.94,1.29,2.9,3.32,2.9,6.08,0,1.59-.43,3.01-1.28,4.25-.85,1.25-2,2.12-3.44,2.63,1.98.45,3.5,1.38,4.57,2.79,1.06,1.41,1.6,3.18,1.6,5.31,0,6.03-4.05,9.04-12.15,9.04h-13.18v-32.04ZM281.96,1245.04v10.12h7.6c.87,0,1.61-.02,2.23-.07.61-.05,1.31-.16,2.09-.34.78-.18,1.4-.44,1.87-.79.46-.34.87-.85,1.22-1.51.34-.66.52-1.45.52-2.39s-.15-1.72-.45-2.36c-.3-.64-.66-1.14-1.08-1.48-.42-.34-1-.61-1.73-.79-.74-.18-1.39-.29-1.98-.34-.58-.05-1.34-.07-2.27-.07h-8.01ZM281.96,1258.5v11.43h8.46c1.05,0,1.9-.02,2.57-.07.66-.05,1.4-.17,2.23-.38s1.48-.52,1.96-.92c.48-.4.88-.99,1.22-1.75.33-.76.5-1.69.5-2.77,0-.9-.11-1.68-.34-2.34-.22-.66-.6-1.18-1.12-1.58-.52-.39-1.02-.7-1.48-.94-.47-.24-1.13-.41-2-.5-.87-.09-1.55-.14-2.02-.16-.48-.01-1.22-.02-2.21-.02h-7.74Z"/>
    <path class="cls-25" d="M327.23,1250.26v23.22h-3.56v-3.64c-1.98,2.85-4.65,4.27-8.01,4.27-2.46,0-4.37-.67-5.72-2.02-1.35-1.35-2.02-3.3-2.02-5.85v-15.97h3.83v14.94c0,1.83.35,3.22,1.06,4.16.7.94,1.97,1.42,3.8,1.42,4.53,0,6.79-2.79,6.79-8.37v-12.15h3.83Z"/>
    <path class="cls-25" d="M352.2,1250.26l-9.95,26.19c-.39,1.05-.73,1.87-1.01,2.45-.29.58-.69,1.23-1.22,1.93s-1.16,1.21-1.89,1.53c-.74.31-1.6.47-2.59.47-.75,0-1.69-.14-2.83-.41v-3.42c1.11.33,1.93.5,2.48.5,1.26,0,2.16-.65,2.7-1.94l1.8-4.23-9.23-23.08h4.32l6.88,18.5,6.52-18.5h4.01Z"/>
    <path class="cls-25" d="M371.6,1250.26v3.6c1.92-2.82,4.56-4.23,7.92-4.23,2.73,0,4.7.71,5.92,2.14,1.22,1.43,1.82,3.52,1.82,6.28v15.43h-3.83v-13.68c0-1.14-.04-2.03-.11-2.68-.08-.64-.26-1.33-.56-2.07-.3-.73-.81-1.27-1.53-1.6-.72-.33-1.65-.49-2.79-.49-4.41,0-6.61,2.79-6.61,8.37v12.15h-3.83v-23.22h3.6Z"/>
    <path class="cls-25" d="M394.86,1252.92c2.04-2.22,4.81-3.33,8.32-3.33s6.24,1.06,8.19,3.19c1.95,2.13,2.92,5.12,2.92,8.96s-.98,6.99-2.92,9.18c-1.95,2.19-4.7,3.29-8.24,3.29s-6.32-1.08-8.32-3.24c-2.01-2.16-3.02-5.16-3.02-9s1.02-6.83,3.06-9.05ZM408.43,1255.23c-1.31-1.63-3.08-2.45-5.33-2.45s-4.04.83-5.35,2.48c-1.32,1.65-1.98,3.85-1.98,6.61s.65,5.08,1.96,6.68c1.31,1.61,3.13,2.41,5.47,2.41s4.01-.81,5.29-2.43c1.27-1.62,1.91-3.85,1.91-6.71s-.65-4.96-1.96-6.59Z"/>
    <path class="cls-25" d="M416.73,1250.26h4.23l5.31,19.12,4.72-19.12h4.18l4.91,19.12,5.26-19.12h3.96l-7.43,23.22h-4.05l-4.77-18.36-4.73,18.36h-4.14l-7.47-23.22Z"/>
  </g>
  <path class="cls-14" d="M264.29,807.69c1.93,0,1.93-3,0-3s-1.93,3,0,3h0Z"/>
  <g>
    <path class="cls-18" d="M917.65,224.1c-.36,4.05-1.76,7.21-4.21,9.47-2.45,2.27-5.66,3.4-9.65,3.4-4.56,0-8.18-1.51-10.85-4.52-2.67-3.02-4-7.09-4-12.22,0-4.8,1.34-8.8,4.03-11.99,2.68-3.2,6.4-4.79,11.14-4.79,3.39,0,6.37.91,8.96,2.74,2.58,1.83,4.02,4.37,4.32,7.61h-4.23c-.48-2.1-1.53-3.74-3.15-4.93-1.62-1.18-3.62-1.78-5.98-1.78-3.57,0-6.26,1.26-8.08,3.78-1.82,2.52-2.72,5.62-2.72,9.31,0,4.08.96,7.29,2.88,9.63,1.92,2.34,4.55,3.51,7.87,3.51,2.73,0,4.91-.79,6.53-2.36,1.62-1.57,2.59-3.86,2.92-6.86h4.23Z"/>
    <path class="cls-18" d="M942.9,233.14v2.97c-.78.3-1.65.45-2.61.45-2.19,0-3.32-1.14-3.37-3.42-2.19,2.46-5,3.69-8.41,3.69-2.28,0-4.09-.58-5.42-1.75-1.34-1.17-2-2.77-2-4.81,0-4.14,2.75-6.55,8.23-7.25.36-.06.88-.12,1.58-.18,2.61-.3,4.21-.64,4.81-1.03.69-.48,1.03-1.31,1.03-2.48,0-2.55-1.75-3.83-5.26-3.83-1.8,0-3.17.37-4.1,1.1-.93.74-1.48,1.94-1.67,3.62h-3.73c.06-2.49.94-4.42,2.65-5.8,1.71-1.38,4.06-2.07,7.07-2.07,3.27,0,5.7.75,7.29,2.25.51.48.88,1.11,1.12,1.89.24.78.37,1.42.41,1.91.03.49.04,1.24.04,2.23,0,1.14-.03,2.87-.09,5.17-.06,2.31-.09,4.04-.09,5.17,0,.84.11,1.43.34,1.78.22.35.64.52,1.24.52.24,0,.55-.05.94-.14ZM936.73,224.14c-.27.21-.56.39-.85.54-.3.15-.68.27-1.15.36-.47.09-.78.16-.94.2-.16.04-.56.11-1.19.18-.63.08-.96.11-.99.11-.93.12-1.54.2-1.82.25-.29.04-.83.17-1.62.38-.8.21-1.36.45-1.69.72-.33.27-.65.67-.97,1.19-.32.53-.47,1.15-.47,1.87,0,1.2.41,2.15,1.24,2.83.82.69,1.96,1.04,3.4,1.04,1.83,0,3.47-.54,4.91-1.62,1.44-1.08,2.16-2.35,2.16-3.83v-4.23Z"/>
    <path class="cls-18" d="M956.44,212.98v3.15h-4.64v13.54c0,.75,0,1.25.02,1.48.01.24.1.56.25.97.15.4.41.67.77.79.36.12.87.18,1.53.18.57,0,1.26-.05,2.07-.14v3.29c-1.08.12-2.06.18-2.93.18-1.08,0-1.98-.12-2.7-.36-.72-.24-1.27-.51-1.64-.81-.38-.3-.65-.83-.83-1.6-.18-.77-.29-1.41-.31-1.94-.03-.52-.04-1.4-.04-2.63v-12.96h-3.91v-3.15h3.91v-6.88h3.82v6.88h4.64Z"/>
    <path class="cls-18" d="M981.24,233.14v2.97c-.78.3-1.65.45-2.61.45-2.19,0-3.32-1.14-3.37-3.42-2.19,2.46-5,3.69-8.42,3.69-2.28,0-4.09-.58-5.42-1.75-1.34-1.17-2-2.77-2-4.81,0-4.14,2.75-6.55,8.23-7.25.36-.06.88-.12,1.58-.18,2.61-.3,4.21-.64,4.81-1.03.69-.48,1.03-1.31,1.03-2.48,0-2.55-1.75-3.83-5.26-3.83-1.8,0-3.17.37-4.1,1.1-.93.74-1.48,1.94-1.66,3.62h-3.73c.06-2.49.94-4.42,2.65-5.8,1.71-1.38,4.06-2.07,7.07-2.07,3.27,0,5.7.75,7.29,2.25.51.48.88,1.11,1.12,1.89.24.78.37,1.42.41,1.91.03.49.04,1.24.04,2.23,0,1.14-.03,2.87-.09,5.17-.06,2.31-.09,4.04-.09,5.17,0,.84.11,1.43.34,1.78.22.35.64.52,1.24.52.24,0,.55-.05.94-.14ZM975.07,224.14c-.27.21-.56.39-.85.54-.3.15-.68.27-1.15.36-.47.09-.78.16-.94.2-.16.04-.56.11-1.19.18-.63.08-.96.11-.99.11-.93.12-1.54.2-1.82.25-.29.04-.83.17-1.62.38-.8.21-1.36.45-1.69.72-.33.27-.65.67-.97,1.19-.32.53-.47,1.15-.47,1.87,0,1.2.41,2.15,1.24,2.83.82.69,1.96,1.04,3.4,1.04,1.83,0,3.47-.54,4.91-1.62,1.44-1.08,2.16-2.35,2.16-3.83v-4.23Z"/>
    <path class="cls-18" d="M988.89,204.16v32.04h-3.87v-32.04h3.87Z"/>
    <path class="cls-18" d="M996.67,215.64c2.04-2.22,4.81-3.33,8.32-3.33s6.24,1.07,8.19,3.19c1.95,2.13,2.92,5.12,2.92,8.96s-.98,6.99-2.92,9.18c-1.95,2.19-4.7,3.29-8.24,3.29s-6.32-1.08-8.32-3.24c-2.01-2.16-3.02-5.16-3.02-9s1.02-6.82,3.06-9.04ZM1010.24,217.95c-1.31-1.63-3.08-2.45-5.33-2.45s-4.04.83-5.35,2.48c-1.32,1.65-1.98,3.86-1.98,6.62s.65,5.08,1.96,6.68c1.31,1.61,3.13,2.41,5.47,2.41s4.01-.81,5.29-2.43c1.27-1.62,1.91-3.85,1.91-6.7s-.65-4.96-1.96-6.59Z"/>
    <path class="cls-18" d="M1040.77,212.98v20.7c0,2.01-.11,3.56-.31,4.66-.21,1.09-.6,2.12-1.17,3.08-1.71,2.82-4.77,4.23-9.18,4.23-2.61,0-4.81-.53-6.62-1.6-1.8-1.07-2.85-2.81-3.15-5.24h3.92c.45,2.58,2.44,3.87,5.98,3.87,2.37,0,4.09-.6,5.15-1.8,1.06-1.2,1.63-3.14,1.69-5.81l.04-2.83c-1.47,2.82-3.93,4.23-7.38,4.23-3.12,0-5.6-1.06-7.45-3.19-1.84-2.13-2.77-5-2.77-8.6,0-3.39.91-6.29,2.75-8.71,1.83-2.41,4.38-3.62,7.65-3.62,1.62,0,3.07.35,4.34,1.04,1.27.69,2.27,1.68,2.99,2.97v-3.38h3.51ZM1030.11,215.68c-2.07,0-3.7.8-4.88,2.41-1.19,1.61-1.78,3.82-1.78,6.64,0,2.55.61,4.6,1.85,6.14,1.23,1.55,2.86,2.32,4.9,2.32s3.8-.81,5.02-2.43c1.21-1.62,1.82-3.84,1.82-6.66,0-2.64-.61-4.7-1.82-6.19-1.21-1.48-2.92-2.23-5.11-2.23Z"/>
  </g>
  <g>
    <path class="cls-18" d="M1227.99,219.24v16.96h-2.7l-1.08-4c-2.58,3.18-6.03,4.77-10.35,4.77-4.56,0-8.24-1.52-11.05-4.57-2.81-3.04-4.21-7.03-4.21-11.95s1.39-8.94,4.16-12.15c2.77-3.21,6.58-4.81,11.41-4.81,2.22,0,4.29.38,6.21,1.15,1.92.76,3.56,1.97,4.91,3.6,1.35,1.64,2.11,3.56,2.29,5.78h-4.14c-.33-2.1-1.34-3.79-3.04-5.06-1.7-1.27-3.77-1.91-6.23-1.91-3.48,0-6.24,1.19-8.28,3.58-2.04,2.39-3.06,5.62-3.06,9.7s1.02,7.22,3.06,9.58c2.04,2.37,4.78,3.55,8.23,3.55,3.24,0,5.71-.98,7.4-2.95,1.69-1.96,2.59-4.57,2.68-7.81h-10.26v-3.46h14.04Z"/>
    <path class="cls-18" d="M1254.22,233.14v2.97c-.78.3-1.65.45-2.61.45-2.19,0-3.32-1.14-3.38-3.42-2.19,2.46-5,3.69-8.41,3.69-2.28,0-4.09-.58-5.42-1.75-1.34-1.17-2-2.77-2-4.81,0-4.14,2.75-6.55,8.23-7.25.36-.06.88-.12,1.58-.18,2.61-.3,4.21-.64,4.82-1.03.69-.48,1.03-1.31,1.03-2.48,0-2.55-1.75-3.83-5.26-3.83-1.8,0-3.17.37-4.1,1.1-.93.74-1.48,1.94-1.67,3.62h-3.73c.06-2.49.94-4.42,2.65-5.8,1.71-1.38,4.07-2.07,7.07-2.07,3.27,0,5.7.75,7.29,2.25.51.48.88,1.11,1.12,1.89.24.78.38,1.42.41,1.91.03.49.04,1.24.04,2.23,0,1.14-.03,2.87-.09,5.17-.06,2.31-.09,4.04-.09,5.17,0,.84.11,1.43.34,1.78.22.35.64.52,1.24.52.24,0,.55-.05.94-.14ZM1248.06,224.14c-.27.21-.56.39-.86.54-.3.15-.68.27-1.15.36-.47.09-.78.16-.94.2-.17.04-.56.11-1.19.18-.63.08-.96.11-.99.11-.93.12-1.54.2-1.82.25-.29.04-.83.17-1.62.38-.8.21-1.36.45-1.69.72-.33.27-.65.67-.97,1.19-.32.53-.47,1.15-.47,1.87,0,1.2.41,2.15,1.24,2.83.82.69,1.96,1.04,3.4,1.04,1.83,0,3.47-.54,4.91-1.62,1.44-1.08,2.16-2.35,2.16-3.83v-4.23Z"/>
    <path class="cls-18" d="M1261.87,204.16v32.04h-3.87v-32.04h3.87Z"/>
    <path class="cls-18" d="M1271.86,204.16v32.04h-3.87v-32.04h3.87Z"/>
    <path class="cls-18" d="M1297.65,228.87c-1.17,5.4-4.54,8.1-10.12,8.1-3.42,0-6.1-1.06-8.03-3.2-1.94-2.13-2.9-5.09-2.9-8.86s1-6.79,2.99-9.11c1.99-2.32,4.6-3.49,7.81-3.49,3.57,0,6.22,1.21,7.94,3.62,1.72,2.41,2.59,5.47,2.59,9.16v.54h-17.46l-.05.27c0,2.46.64,4.4,1.93,5.81,1.29,1.41,3.06,2.12,5.31,2.12,1.68,0,3.01-.39,3.98-1.17.97-.78,1.73-2.04,2.27-3.78h3.73ZM1293.96,222.52c-.18-2.22-.86-3.95-2.03-5.2-1.17-1.24-2.72-1.87-4.63-1.87s-3.41.63-4.63,1.89c-1.23,1.26-1.97,2.99-2.2,5.17h13.5Z"/>
    <path class="cls-18" d="M1314.07,212.44v3.96c-.27-.03-.6-.05-.99-.05-1.23,0-2.3.19-3.2.56-.9.38-1.61.86-2.14,1.46-.53.6-.95,1.35-1.28,2.25-.33.9-.55,1.8-.65,2.7-.11.9-.16,1.92-.16,3.06v9.81h-3.82v-23.22h3.64v5c1.53-3.69,4.39-5.53,8.59-5.53Z"/>
    <path class="cls-18" d="M1336.17,212.98l-9.95,26.19c-.39,1.05-.73,1.87-1.01,2.45-.29.59-.69,1.23-1.22,1.94-.52.7-1.16,1.21-1.89,1.53-.74.32-1.6.47-2.59.47-.75,0-1.69-.13-2.83-.4v-3.42c1.11.33,1.93.49,2.48.49,1.26,0,2.16-.64,2.7-1.93l1.8-4.23-9.23-23.09h4.32l6.88,18.5,6.52-18.5h4.01Z"/>
  </g>
  <g>
    <path class="cls-18" d="M1490.92,204.16l12.51,32.04h-4.72l-3.55-9.81h-13.46l-3.65,9.81h-4.5l12.6-32.04h4.77ZM1493.89,223.02l-5.44-14.81-5.54,14.81h10.98Z"/>
    <path class="cls-18" d="M1509.73,204.16v12.02c1.68-2.55,4.25-3.83,7.7-3.83,3.18,0,5.72,1.1,7.63,3.31,1.91,2.2,2.86,5.15,2.86,8.84s-.97,6.75-2.92,9-4.54,3.38-7.79,3.38c-3.69,0-6.25-1.35-7.69-4.05v3.38h-3.6v-32.04h3.83ZM1516.84,215.59c-2.46,0-4.28.89-5.47,2.65-1.19,1.77-1.78,3.95-1.78,6.52,0,2.73.65,4.9,1.96,6.5,1.31,1.61,3.07,2.41,5.29,2.41s3.85-.83,5.15-2.5c1.3-1.67,1.96-3.88,1.96-6.64s-.65-4.91-1.93-6.53c-1.29-1.62-3.01-2.43-5.17-2.43Z"/>
    <path class="cls-18" d="M1534.48,215.64c2.04-2.22,4.81-3.33,8.32-3.33s6.24,1.07,8.19,3.19c1.95,2.13,2.92,5.12,2.92,8.96s-.97,6.99-2.92,9.18c-1.95,2.19-4.7,3.29-8.24,3.29s-6.32-1.08-8.32-3.24c-2.01-2.16-3.02-5.16-3.02-9s1.02-6.82,3.06-9.04ZM1548.04,217.95c-1.31-1.63-3.08-2.45-5.33-2.45s-4.04.83-5.35,2.48c-1.32,1.65-1.98,3.86-1.98,6.62s.65,5.08,1.96,6.68c1.3,1.61,3.13,2.41,5.47,2.41s4.01-.81,5.29-2.43c1.27-1.62,1.91-3.85,1.91-6.7s-.65-4.96-1.96-6.59Z"/>
    <path class="cls-18" d="M1577.72,212.98v23.22h-3.55v-3.65c-1.98,2.85-4.65,4.27-8.01,4.27-2.46,0-4.37-.67-5.72-2.02-1.35-1.35-2.02-3.3-2.02-5.85v-15.98h3.83v14.94c0,1.83.35,3.22,1.06,4.16.71.95,1.97,1.42,3.8,1.42,4.53,0,6.79-2.79,6.79-8.37v-12.15h3.83Z"/>
    <path class="cls-18" d="M1593.42,212.98v3.15h-4.63v13.54c0,.75,0,1.25.02,1.48.01.24.1.56.25.97.15.4.41.67.77.79.36.12.87.18,1.53.18.57,0,1.26-.05,2.07-.14v3.29c-1.08.12-2.06.18-2.92.18-1.08,0-1.98-.12-2.7-.36-.72-.24-1.27-.51-1.64-.81-.38-.3-.65-.83-.83-1.6-.18-.77-.29-1.41-.32-1.94-.03-.52-.04-1.4-.04-2.63v-12.96h-3.92v-3.15h3.92v-6.88h3.83v6.88h4.63Z"/>
    <path class="cls-18" d="M1610.61,204.16h4.27v20.21c0,3.12.67,5.4,2.03,6.84,1.35,1.44,3.55,2.16,6.62,2.16s5.38-.73,6.68-2.21c1.3-1.47,1.96-3.73,1.96-6.79v-20.21h4.28v19.08c0,4.68-.98,8.12-2.93,10.33-1.95,2.2-5.28,3.31-9.99,3.31s-7.85-1.07-9.88-3.22c-2.03-2.14-3.04-5.47-3.04-9.97v-19.53Z"/>
    <path class="cls-18" d="M1659.89,219.73h-3.83c-.24-2.82-2.13-4.23-5.67-4.23-1.47,0-2.62.29-3.46.85-.84.57-1.26,1.34-1.26,2.3,0,.27.03.53.09.79.06.26.17.48.34.68.17.2.32.37.45.52.14.15.36.29.67.43.32.14.56.25.72.34.16.09.46.19.9.29.43.11.74.18.92.23.18.05.53.13,1.06.25.52.12.86.2,1.01.23,1.11.24,1.94.44,2.5.59.55.15,1.32.43,2.29.83.97.4,1.72.83,2.23,1.26.51.44.97,1.04,1.37,1.8.4.77.61,1.63.61,2.59,0,2.25-.88,4.06-2.63,5.42s-4.09,2.05-7,2.05c-3.15,0-5.57-.69-7.27-2.07-1.7-1.38-2.6-3.38-2.72-5.98h3.78c.21,3.27,2.31,4.9,6.3,4.9,1.71,0,3.08-.35,4.12-1.06,1.04-.7,1.55-1.64,1.55-2.81,0-.78-.27-1.42-.81-1.93-.54-.51-1.14-.88-1.8-1.1-.66-.23-1.61-.49-2.83-.79-.18-.03-.31-.06-.41-.09-.27-.06-.85-.19-1.73-.38-.88-.19-1.52-.35-1.91-.47-.39-.12-.95-.31-1.69-.56-.74-.25-1.28-.52-1.64-.81-.36-.28-.76-.65-1.19-1.08-.44-.43-.74-.94-.92-1.53-.18-.59-.27-1.25-.27-2,0-2.1.8-3.76,2.41-4.99,1.6-1.23,3.76-1.85,6.46-1.85s4.96.65,6.68,1.94c1.73,1.29,2.59,3.12,2.59,5.49Z"/>
  </g>
  <g>
    <path class="cls-18" d="M1808.65,224.1c-.36,4.05-1.76,7.21-4.21,9.47-2.45,2.27-5.66,3.4-9.65,3.4-4.56,0-8.18-1.51-10.85-4.52-2.67-3.02-4-7.09-4-12.22,0-4.8,1.34-8.8,4.03-11.99,2.68-3.2,6.4-4.79,11.14-4.79,3.39,0,6.38.91,8.96,2.74,2.58,1.83,4.02,4.37,4.32,7.61h-4.23c-.48-2.1-1.53-3.74-3.15-4.93-1.62-1.18-3.62-1.78-5.98-1.78-3.57,0-6.26,1.26-8.08,3.78-1.81,2.52-2.72,5.62-2.72,9.31,0,4.08.96,7.29,2.88,9.63,1.92,2.34,4.54,3.51,7.88,3.51,2.73,0,4.9-.79,6.53-2.36,1.62-1.57,2.59-3.86,2.92-6.86h4.23Z"/>
    <path class="cls-18" d="M1815.18,215.64c2.04-2.22,4.82-3.33,8.33-3.33s6.24,1.07,8.19,3.19c1.95,2.13,2.93,5.12,2.93,8.96s-.98,6.99-2.93,9.18c-1.95,2.19-4.7,3.29-8.23,3.29s-6.32-1.08-8.33-3.24c-2.01-2.16-3.01-5.16-3.01-9s1.02-6.82,3.06-9.04ZM1828.75,217.95c-1.3-1.63-3.08-2.45-5.33-2.45s-4.04.83-5.36,2.48c-1.32,1.65-1.98,3.86-1.98,6.62s.65,5.08,1.96,6.68c1.31,1.61,3.13,2.41,5.47,2.41s4.01-.81,5.29-2.43c1.28-1.62,1.91-3.85,1.91-6.7s-.65-4.96-1.96-6.59Z"/>
    <path class="cls-18" d="M1842.76,212.98v3.6c1.92-2.82,4.56-4.23,7.92-4.23,2.73,0,4.7.71,5.92,2.14,1.22,1.43,1.82,3.52,1.82,6.28v15.44h-3.83v-13.68c0-1.14-.04-2.03-.11-2.68-.08-.65-.26-1.33-.56-2.07-.3-.73-.81-1.27-1.53-1.6-.72-.33-1.65-.5-2.79-.5-4.41,0-6.62,2.79-6.62,8.37v12.15h-3.83v-23.22h3.6Z"/>
    <path class="cls-18" d="M1874.13,212.98v3.15h-4.64v13.54c0,.75,0,1.25.02,1.48.01.24.1.56.25.97.15.4.4.67.76.79.36.12.87.18,1.53.18.57,0,1.26-.05,2.07-.14v3.29c-1.08.12-2.06.18-2.93.18-1.08,0-1.98-.12-2.7-.36-.72-.24-1.27-.51-1.64-.81-.38-.3-.65-.83-.83-1.6-.18-.77-.29-1.41-.32-1.94-.03-.52-.04-1.4-.04-2.63v-12.96h-3.91v-3.15h3.91v-6.88h3.83v6.88h4.64Z"/>
    <path class="cls-18" d="M1898.92,233.14v2.97c-.78.3-1.65.45-2.61.45-2.19,0-3.32-1.14-3.38-3.42-2.19,2.46-5,3.69-8.42,3.69-2.28,0-4.09-.58-5.42-1.75-1.33-1.17-2-2.77-2-4.81,0-4.14,2.75-6.55,8.23-7.25.36-.06.88-.12,1.58-.18,2.61-.3,4.21-.64,4.81-1.03.69-.48,1.04-1.31,1.04-2.48,0-2.55-1.76-3.83-5.27-3.83-1.8,0-3.16.37-4.09,1.1-.93.74-1.49,1.94-1.67,3.62h-3.73c.06-2.49.94-4.42,2.65-5.8,1.71-1.38,4.06-2.07,7.07-2.07,3.27,0,5.7.75,7.29,2.25.51.48.88,1.11,1.12,1.89.24.78.38,1.42.4,1.91.03.49.04,1.24.04,2.23,0,1.14-.03,2.87-.09,5.17-.06,2.31-.09,4.04-.09,5.17,0,.84.11,1.43.34,1.78.22.35.64.52,1.24.52.24,0,.55-.05.94-.14ZM1892.76,224.14c-.27.21-.56.39-.86.54-.3.15-.68.27-1.15.36-.47.09-.78.16-.94.2-.17.04-.56.11-1.19.18-.63.08-.96.11-.99.11-.93.12-1.54.2-1.82.25-.29.04-.83.17-1.62.38-.8.21-1.36.45-1.69.72-.33.27-.65.67-.97,1.19-.32.53-.47,1.15-.47,1.87,0,1.2.41,2.15,1.24,2.83.82.69,1.96,1.04,3.4,1.04,1.83,0,3.47-.54,4.91-1.62,1.44-1.08,2.16-2.35,2.16-3.83v-4.23Z"/>
    <path class="cls-18" d="M1922.5,227.74c-.33,2.79-1.39,5.01-3.17,6.66-1.79,1.65-4.1,2.47-6.95,2.47-3.51,0-6.22-1.09-8.14-3.26-1.92-2.17-2.88-5.08-2.88-8.71,0-3.87,1.01-6.94,3.02-9.2,2.01-2.26,4.72-3.4,8.14-3.4,2.85,0,5.13.71,6.84,2.14,1.71,1.43,2.71,3.46,3.02,6.1h-3.96c-.69-3.36-2.64-5.04-5.85-5.04-2.22,0-3.97.82-5.26,2.45-1.29,1.64-1.93,3.85-1.93,6.64s.61,5.04,1.84,6.66c1.23,1.62,2.92,2.43,5.08,2.43,1.74,0,3.16-.51,4.25-1.53,1.1-1.02,1.79-2.49,2.09-4.41h3.87Z"/>
    <path class="cls-18" d="M1936.63,212.98v3.15h-4.64v13.54c0,.75,0,1.25.02,1.48.01.24.1.56.25.97.15.4.41.67.76.79.36.12.87.18,1.53.18.57,0,1.26-.05,2.07-.14v3.29c-1.08.12-2.06.18-2.92.18-1.08,0-1.98-.12-2.7-.36-.72-.24-1.27-.51-1.64-.81-.38-.3-.65-.83-.83-1.6-.18-.77-.29-1.41-.31-1.94-.03-.52-.04-1.4-.04-2.63v-12.96h-3.92v-3.15h3.92v-6.88h3.82v6.88h4.64Z"/>
    <path class="cls-18" d="M1958.1,219.73h-3.82c-.24-2.82-2.13-4.23-5.67-4.23-1.47,0-2.63.29-3.47.85-.84.57-1.26,1.34-1.26,2.3,0,.27.03.53.09.79.06.26.17.48.34.68.16.2.32.37.45.52.13.15.36.29.67.43.32.14.56.25.72.34.16.09.46.19.9.29.43.11.74.18.92.23.18.05.53.13,1.06.25.52.12.86.2,1.01.23,1.11.24,1.94.44,2.5.59.55.15,1.32.43,2.29.83.97.4,1.72.83,2.23,1.26.51.44.97,1.04,1.37,1.8.4.77.61,1.63.61,2.59,0,2.25-.88,4.06-2.63,5.42-1.75,1.36-4.09,2.05-7,2.05-3.15,0-5.57-.69-7.27-2.07-1.7-1.38-2.6-3.38-2.72-5.98h3.78c.21,3.27,2.31,4.9,6.3,4.9,1.71,0,3.08-.35,4.12-1.06,1.03-.7,1.55-1.64,1.55-2.81,0-.78-.27-1.42-.81-1.93-.54-.51-1.14-.88-1.8-1.1-.66-.23-1.61-.49-2.83-.79-.18-.03-.32-.06-.41-.09-.27-.06-.85-.19-1.73-.38-.88-.19-1.52-.35-1.91-.47-.39-.12-.95-.31-1.69-.56-.74-.25-1.28-.52-1.64-.81-.36-.28-.76-.65-1.19-1.08-.43-.43-.74-.94-.92-1.53-.18-.59-.27-1.25-.27-2,0-2.1.8-3.76,2.41-4.99,1.6-1.23,3.76-1.85,6.46-1.85s4.96.65,6.68,1.94c1.73,1.29,2.59,3.12,2.59,5.49Z"/>
  </g>
  <rect class="cls-12" x="1470.33" y="246.66" width="191" height="5"/>
  <g>
    <path class="cls-18" d="M625.73,1250.47h-4.09c-.45-4.35-3.1-6.53-7.97-6.53-2.31,0-4.09.47-5.35,1.4-1.26.93-1.89,2.24-1.89,3.92,0,.6.09,1.12.27,1.57.18.45.49.85.92,1.19.43.34.85.64,1.24.88.39.24,1,.48,1.85.72.84.24,1.51.41,2.02.52.51.11,1.31.28,2.39.52,1.32.27,2.41.52,3.28.74.87.22,1.9.59,3.1,1.1,1.2.51,2.15,1.07,2.86,1.69.7.62,1.32,1.43,1.85,2.45.52,1.02.79,2.18.79,3.46,0,2.25-.63,4.13-1.89,5.65-1.26,1.52-2.79,2.57-4.59,3.17-1.8.6-3.8.9-5.99.9-4.02,0-7.24-.95-9.65-2.86-2.41-1.9-3.62-4.72-3.62-8.44h4.1c.09,2.73,1,4.72,2.75,5.96,1.74,1.25,4,1.87,6.79,1.87,2.19,0,4.06-.46,5.62-1.37,1.56-.91,2.34-2.41,2.34-4.48,0-.96-.21-1.78-.63-2.45-.42-.67-1.08-1.23-1.98-1.67-.9-.43-1.8-.79-2.7-1.06-.9-.27-2.09-.57-3.55-.9-.21-.03-.36-.06-.45-.09-3.3-.75-5.46-1.35-6.48-1.8-3.12-1.35-4.68-3.67-4.68-6.98,0-3.06,1.13-5.35,3.4-6.86,2.27-1.51,5-2.27,8.21-2.27,3.51,0,6.31.84,8.41,2.52,2.1,1.68,3.21,4.19,3.33,7.52Z"/>
    <path class="cls-18" d="M635.36,1241.06v12.11c1.71-2.58,4.24-3.87,7.6-3.87,5.22,0,7.83,2.64,7.83,7.92v15.88h-3.83v-14.99c0-1.77-.37-3.13-1.1-4.07-.74-.95-2.06-1.42-3.98-1.42-2.34,0-4.01.75-5.02,2.25-1.01,1.5-1.51,3.64-1.51,6.43v11.79h-3.83v-32.04h3.83Z"/>
    <path class="cls-18" d="M658.4,1252.54c2.04-2.22,4.81-3.33,8.32-3.33s6.24,1.06,8.19,3.19c1.95,2.13,2.92,5.12,2.92,8.96s-.98,6.99-2.92,9.18c-1.95,2.19-4.7,3.29-8.24,3.29s-6.32-1.08-8.32-3.24c-2.01-2.16-3.02-5.16-3.02-9s1.02-6.83,3.06-9.05ZM671.97,1254.85c-1.31-1.63-3.08-2.45-5.33-2.45s-4.04.83-5.35,2.48c-1.32,1.65-1.98,3.85-1.98,6.61s.65,5.08,1.96,6.68c1.31,1.61,3.13,2.41,5.47,2.41s4.01-.81,5.29-2.43c1.27-1.62,1.91-3.85,1.91-6.71s-.65-4.96-1.96-6.59Z"/>
    <path class="cls-18" d="M680.27,1249.88h4.23l5.31,19.12,4.72-19.12h4.19l4.91,19.12,5.26-19.12h3.96l-7.43,23.22h-4.05l-4.77-18.36-4.72,18.36h-4.14l-7.47-23.22Z"/>
    <path class="cls-18" d="M732.61,1249.88v3.38c1.02-1.38,2.12-2.39,3.29-3.02,1.17-.63,2.59-.94,4.27-.94,3.18,0,5.32,1.34,6.44,4,2.01-2.7,4.57-4.05,7.69-4.05,2.4,0,4.22.67,5.47,2,1.24,1.34,1.87,3.2,1.87,5.6v16.25h-3.82v-14.62c0-1.92-.3-3.37-.9-4.34-.6-.97-1.84-1.46-3.73-1.46-3.96,0-5.94,2.42-5.94,7.25v13.18h-3.83v-14.89c0-1.77-.29-3.13-.88-4.07-.58-.94-1.72-1.42-3.4-1.42-2.37,0-4.01.73-4.93,2.18-.92,1.45-1.37,3.43-1.37,5.92v12.29h-3.83v-23.22h3.6Z"/>
    <path class="cls-18" d="M769.24,1252.54c2.04-2.22,4.81-3.33,8.32-3.33s6.24,1.06,8.19,3.19c1.95,2.13,2.92,5.12,2.92,8.96s-.98,6.99-2.92,9.18c-1.95,2.19-4.7,3.29-8.24,3.29s-6.32-1.08-8.32-3.24c-2.01-2.16-3.02-5.16-3.02-9s1.02-6.83,3.06-9.05ZM782.8,1254.85c-1.31-1.63-3.08-2.45-5.33-2.45s-4.04.83-5.35,2.48c-1.32,1.65-1.98,3.85-1.98,6.61s.65,5.08,1.96,6.68c1.31,1.61,3.13,2.41,5.47,2.41s4.01-.81,5.29-2.43c1.27-1.62,1.91-3.85,1.91-6.71s-.65-4.96-1.96-6.59Z"/>
    <path class="cls-18" d="M805.33,1249.34v3.96c-.27-.03-.6-.04-.99-.04-1.23,0-2.3.19-3.2.56-.9.38-1.61.86-2.14,1.46-.53.6-.95,1.35-1.28,2.25-.33.9-.55,1.8-.65,2.7-.11.9-.16,1.92-.16,3.06v9.81h-3.82v-23.22h3.64v5c1.53-3.69,4.39-5.54,8.59-5.54Z"/>
    <path class="cls-18" d="M828.05,1265.77c-1.17,5.4-4.54,8.1-10.12,8.1-3.42,0-6.1-1.06-8.03-3.19-1.94-2.13-2.9-5.08-2.9-8.87s1-6.79,2.99-9.11c1.99-2.33,4.6-3.49,7.81-3.49,3.57,0,6.22,1.21,7.94,3.62,1.72,2.42,2.59,5.47,2.59,9.16v.54h-17.46l-.04.27c0,2.46.64,4.39,1.93,5.8,1.29,1.41,3.06,2.12,5.31,2.12,1.68,0,3.01-.39,3.98-1.17.97-.78,1.73-2.04,2.27-3.78h3.73ZM824.36,1259.42c-.18-2.22-.85-3.95-2.03-5.2-1.17-1.24-2.72-1.87-4.63-1.87s-3.41.63-4.63,1.89c-1.23,1.26-1.97,2.99-2.2,5.18h13.5Z"/>
  </g>
  <rect class="cls-18" x="601.33" y="1284.66" width="226" height="2"/>
  <path class="cls-8" d="M2790.35,1450.1v139.41c0,16.74-13.7,30.44-30.44,30.44h-91.01c-16.74,0-30.44-13.7-30.44-30.44v-139.41h151.88Z"/>
  <g class="cls-38">
    <path class="cls-8" d="M218.44,138.52c4.58,0,9.99,3.51,16.25,10.53.18.2.35.42.49.66,1.93,3.29,2.9,8.34,2.9,15.16,0,4.3-.69,21.47-2.06,51.52,0,.09,0,.2,0,.29.98,21.92,2.98,35.32,5.99,40.2,1.09,1.76,3.51,2.03,4.84.45,4.18-4.97,9.01-21.66,14.48-50.09l1.55-1.03h.52c1.21,0,2.07,1.89,2.58,5.68-7.67,42.03-18.34,63.03-32.03,63.03h-2.58c-7.67,0-15.76-6.72-24.28-20.15-6.2-11.28-9.3-26.43-9.3-45.47v-5.68h-.52c-9.56,34.1-20.75,51.15-33.58,51.15h-.52c-11.19,0-19.12-6.37-23.77-19.12-2.07-5.51-3.1-11.37-3.1-17.57v-6.2c0-26.26,8.96-45.9,26.87-58.9,5.68-3.79,11.88-5.68,18.6-5.68,5.75,0,11.99,2.04,18.71,6.13,2.18-.81,2.92-1.08,5.11-1.88.92-3.35,2.97-6.83,6.16-10.45,1.21-1.21,3.44-2.07,6.72-2.58ZM169.87,214.99c.43,17.91,2.15,26.87,5.17,26.87,4.05,0,10.08-13.43,18.08-40.3,5.51-21.87,8.27-34.44,8.27-37.72v-1.03c0-3.1-2.41-4.99-7.23-5.68-9.97,0-17.88,15.26-23.73,45.77-.03.14-.05.29-.05.43-.34,5.31-.5,9.2-.5,11.66Z"/>
  </g>
  <g>
    <path class="cls-8" d="M565.78,680.55c0-1.88-.22-3.1-.61-3.71,2.23-14.71,9.6-22.08,22.08-22.08,8.68,0,15.23,5.72,19.64,17.2v7.33c-3.36,12.7-9.73,19.03-19.03,19.03h-3.05c-8.9,0-15.23-5.94-19.03-17.76Z"/>
    <path class="cls-8" d="M832.83,764.61l-2.49,1.82c-14.18,36.45-26.88,54.65-38.01,54.65h-.65c-1.37,0-3.24-.53-5.56-1.59-1.17-.53-2.19-1.4-2.96-2.43-11.08-14.98-16.61-31.82-16.61-50.63v-6.71c0-5.64.83-11.57,2.44-17.8,4-14.21,9.3-23.85,15.89-28.98,1.42-1.1,3.15-1.7,4.94-1.7h1.87c.22,0,.83.39,1.88,1.22,6.63,9.73,10.9,15.01,12.87,15.93h.62c.83,0,1.22-.39,1.22-1.22v-3.05c-4.27-15.15-13.48-22.69-27.63-22.69h-.6c-6.85,0-13.79,1.61-20.86,4.88-20.98,10.3-32.01,32.21-33.11,65.79,0,.34.01.67.01,1.02.12,1.92.3,3.86.54,5.86.01.58.01,1.14.01,1.72-.65,4.91-1.3,11.23-1.94,18.92-.04.28-.08.59-.12.89-6.53,35.31-14.36,51.97-23.53,50.05h-3.1c-1.69,0-3.71-1.04-5.98-3.05-3.05-2.96-5.28-9.29-6.68-18.98-1.35-9.65-2.36-23.57-2.96-41.81-.62-18.2-.92-35.79-.92-52.76v-15.63c0-3.29,1.91-6.27,4.89-7.67h.01c37.66-19.65,56.46-44.61,56.46-74.9v-3.66c0-5.46-1.43-10.96-4.27-16.59-7.68-13.48-18.33-20.26-31.94-20.26h-4.89c-21.17,0-38.14,13.71-50.93,41.11-10.13,22.52-15.67,49.32-16.59,80.38-1.36,16.19-.95,37.69,1.31,64.48.11,1.29-.11,2.65-.59,3.85-9.58,23.2-16.87,34.8-21.81,34.8h-1.22c-4.18,0-6.84-15.06-7.98-45.19v-.51c.38-11.8.59-24.43.6-37.84-.02-.37-.05-.77-.07-1.14-1.73-15-8.12-22.94-19.15-23.87-1.03-.09-2.07.09-3.03.51-.67.3-1.81.62-3.39.95-.89.2-1.79.47-2.58.94-12.29,7.21-18.43,26.45-18.43,57.65,0,7.77.47,14.88,1.41,21.32.11.72.11,1.46.01,2.19-2.08,16.15-4.27,29.22-6.62,39.21-3.49,12.61-7.15,21.59-11.08,27.02h-.62c-1.22,0-2-6.33-2.44-19.04,0-2.95.43-11.45,1.21-25.45.01-.19.02-.38.05-.57,5.3-44.33,7.96-67.99,7.96-70.95v-3.67c0-5.33-.34-9.36-1.83-11.65-.66-1.01-1.34-1.97-2.05-2.88-9.32-12.22-24.58-18.24-39.91-17.33-1.31.08-2.39.11-3.08.05-10.07-.88-17.37-1.31-21.88-1.31h-7.38s-1.28-4.04-1.39-5.75c-.41-6.08-1.54-12.41-3.37-18.99-.09-.28-.19-.59-.28-.89-7.02-19.73-20.05-29.62-39.11-29.62h-1.84c-1.66,0-3.28.21-4.94.6-11.87,3.2-17.8,12.39-17.8,27.63,0,11.16,6.65,19.83,19.89,25.93.66.2,1.34.41,2,.63l32.25,5.86c3.92,3.56,5.54,6.98,6.3,9.3.2.58.39,1.22.53,1.97,1.68,8.55-8.71,31.77-11.08,37.23-3.23,7.45-6.07,13.7-7.58,19.05-13.95,35.29-26.42,52.92-37.37,52.92h-.62c-1.57,0-3.71-.67-6.44-1.98-.6-.3-1.15-.75-1.55-1.28-11.46-15.16-17.19-32.26-17.19-51.39v-6.71c0-5.64.83-11.57,2.44-17.8,4.36-15.32,10.15-25.33,17.46-30.09.63-.4,1.35-.59,2.1-.59h3.18c.18,0,.83.39,1.84,1.22,6.63,9.73,10.95,15.01,12.87,15.93h.62c.83,0,1.22-.39,1.22-1.22v-3.07c-4.27-15.14-13.48-22.68-27.58-22.68h-.6c-6.85,0-13.84,1.61-20.91,4.88-20.99,10.32-32.02,32.32-33.12,66.05,0,.17,0,.33.01.5.12,2.24.34,4.59.67,6.97.06.45.05.92-.05,1.35-5.35,25.48-10.15,40.93-14.37,46.34-1.6,2.05-4.83,1.75-6.14-.49-3.48-6.01-5.8-21.82-6.96-47.46v-.39c1.61-35.7,2.44-56.07,2.44-61.2,0-8.09-1.14-14.06-3.41-17.96-.18-.3-.38-.56-.6-.82-7.19-8.04-13.44-12.23-18.73-12.5-.38-.02-.78.01-1.16.08-3.56.62-6.03,1.63-7.39,3-5.33,6.03-7.99,11.74-7.99,17.15,0,.44-.21.62-.62.62-9.81-6.95-18.8-10.43-27-10.43s-15.32,2.26-22.09,6.76c-21.25,15.45-31.9,38.76-31.9,69.95v7.38c0,7.39,1.22,14.32,3.67,20.87,5.54,15.14,14.93,22.69,28.23,22.69h.62c15.22,0,28.54-20.26,39.88-60.75h.62v6.76c0,22.5,3.67,40.43,10.94,53.81.07.13.14.26.22.38,10.07,15.84,19.69,23.77,28.72,23.77h3.1c12,0,22.09-13.69,30.19-41.03.99-3.39,5.69-3.62,7.11-.4,9.48,21.47,22.37,32.22,38.64,32.22h3.66c9.96,0,20.3-4.85,31.03-14.51.17-.15.34-.33.5-.52,14.62-17.58,23.75-34.9,27.39-51.88.01-.09.02-.19.04-.27,1.22-3.81,2.44-7.66,3.63-11.54,6.13-19.94,11.41-39.37,15.97-58.23v-.6c9.21,0,17.53.57,24.97,1.69,4.25.64,7.15,4.62,6.58,8.88-4.57,34.37-6.9,61.55-6.97,81.51,0,2.23.17,6.11.6,11.66,2.97,42.11,12.79,63.19,29.47,63.19,14.31,0,25.13-11.66,32.51-34.96,1.21-4.06,2.36-8.67,3.48-13.8,1.36-6.23,9.12-8.43,13.47-3.78,5.9,6.31,13.05,9.46,21.42,9.46,7.92,0,16.35-4.33,25.29-13.05.31-.33.63-.7.94-1.03,1.88-2.43,3.65-4.79,5.28-7.13,3.85-5.48,12.34-3.76,13.93,2.75,2.69,10.96,6.14,19.92,10.33,26.88,8.69,15.06,17.98,23.13,27.93,24.3,9.91,1.18,19.2-2.84,27.89-12.04,8.45-9.71,14.92-22.13,19.4-37.28,1.91-6.48,10.42-7.72,14.15-2.1,8.54,12.86,19.1,19.3,31.69,19.3h3.67c9.86,0,20.11-4.77,30.74-14.25.33-.36.69-.72,1.03-1.08,14.11-17.04,23.06-33.83,26.86-50.31.2-.84.27-1.75.21-2.62-.3-4.43-1.1-6.63-2.38-6.63ZM681.39,702.02c8.07-64.64,19.33-96.97,33.74-96.97,1.74,0,4.01.6,6.76,1.82,10.22,4.81,15.32,15.24,15.32,31.3,0,3.94-1.93,10.9-5.88,20.89-.14.37-.32.76-.51,1.1-11.64,21.53-28.13,36.28-49.43,44.3v-2.45ZM463.61,707.04h-8.59c-2.14,0-4.98-.34-8.56-1.09-.41-.08-.86-.2-1.28-.34-11.45-3.93-17.18-11.01-17.18-21.26v-1.22c0-10.04,4.5-16.76,13.48-20.26.75.39,1.53.62,2.49.62,13.09,7.16,19.64,21.25,19.64,42.33v1.22ZM273.51,729.82c0,3.89-3.28,18.86-9.83,44.83-9.51,31.89-16.67,47.87-21.51,47.87-3.58,0-5.59-10.65-6.11-31.95,0-2.92.21-7.49.59-13.79.01-.19.04-.4.07-.59,6.94-36.2,16.34-54.35,28.19-54.35,5.71.83,8.59,3.1,8.59,6.76v1.22Z"/>
  </g>
  <path class="cls-20" d="M551.13,218.08c1.93,0,1.93-3,0-3s-1.93,3,0,3h0Z"/>
  <text class="cls-49" transform="translate(128.22 979.32)"><tspan class="cls-40" x="0" y="0">Y</tspan><tspan x="22.32" y="0">our personali</tspan><tspan class="cls-60" x="285.74" y="0">z</tspan><tspan x="305.95" y="0">ed </tspan><tspan class="cls-59" x="367.24" y="0">e</tspan><tspan class="cls-50" x="392.64" y="0">-</tspan><tspan class="cls-37" x="408.24" y="0">c</tspan><tspan x="429.45" y="0">omme</tspan><tspan class="cls-43" x="559.92" y="0">r</tspan><tspan class="cls-55" x="575.13" y="0">c</tspan><tspan class="cls-52" x="596.35" y="0">e pl</tspan><tspan class="cls-56" x="669.21" y="0">a</tspan><tspan x="692.15" y="0">t</tspan><tspan class="cls-42" x="708.04" y="0">f</tspan><tspan x="721.43" y="0">o</tspan><tspan class="cls-57" x="747.79" y="0">r</tspan><tspan x="763.67" y="0">m </tspan><tspan class="cls-42" x="813.88" y="0">f</tspan><tspan x="827.27" y="0">or a</tspan><tspan class="cls-58" x="902.63" y="0">r</tspan><tspan x="919.48" y="0">tists! </tspan><tspan x="0" y="48">Explo</tspan><tspan class="cls-47" x="110.83" y="48">r</tspan><tspan class="cls-45" x="126.05" y="48">e a cu</tspan><tspan class="cls-53" x="241.53" y="48">r</tspan><tspan class="cls-41" x="256.99" y="48">a</tspan><tspan class="cls-37" x="279.93" y="48">t</tspan><tspan x="295.53" y="48">ed </tspan><tspan class="cls-55" x="356.83" y="48">c</tspan><tspan x="378.04" y="48">olle</tspan><tspan class="cls-46" x="451.1" y="48">c</tspan><tspan x="473.23" y="48">tion of a</tspan><tspan class="cls-58" x="637.19" y="48">r</tspan><tspan x="654.04" y="48">t a</tspan><tspan class="cls-37" x="703.24" y="48">cc</tspan><tspan x="745.67" y="48">esso</tspan><tspan class="cls-57" x="834.08" y="48">r</tspan><tspan class="cls-45" x="849.97" y="48">ies and </tspan><tspan x="0" y="96">p</tspan><tspan class="cls-47" x="27.31" y="96">r</tspan><tspan class="cls-45" x="42.53" y="96">odu</tspan><tspan class="cls-48" x="122.4" y="96">c</tspan><tspan x="144.53" y="96">t</tspan><tspan class="cls-54" x="160.41" y="96">s</tspan><tspan x="178.89" y="96">, desi</tspan><tspan class="cls-55" x="280.36" y="96">g</tspan><tspan x="306.91" y="96">ned </tspan><tspan class="cls-55" x="394.84" y="96">t</tspan><tspan x="410.44" y="96">o inspi</tspan><tspan class="cls-43" x="542.39" y="96">r</tspan><tspan class="cls-52" x="557.61" y="96">e and</tspan><tspan x="0" y="144">emp</tspan><tspan class="cls-60" x="91.39" y="144">o</tspan><tspan class="cls-43" x="117.41" y="144">w</tspan><tspan class="cls-52" x="152.26" y="144">er </tspan><tspan class="cls-43" x="202.17" y="144">y</tspan><tspan x="224.3" y="144">our c</tspan><tspan class="cls-47" x="324.48" y="144">r</tspan><tspan class="cls-45" x="339.69" y="144">e</tspan><tspan class="cls-56" x="363.74" y="144">a</tspan><tspan x="386.68" y="144">tivi</tspan><tspan class="cls-51" x="448.12" y="144">t</tspan><tspan class="cls-39" x="464.44" y="144">y</tspan><tspan x="485.18" y="144">.</tspan></text>
  <ellipse class="cls-23" cx="2226.71" cy="1622.87" rx="853.39" ry="94.7" transform="translate(-4.32 5.94) rotate(-.15)"/>
  <g>
    <path class="cls-9" d="M1747.47,1393.1s-166.6-439.57-284.18-389.88c-117.58,49.69,176.9,269.81,221.35,399.31l62.83-9.43Z"/>
    <g>
      <path class="cls-6" d="M1671.72,1356.76s-245.34-380.37-367.17-307.58c-121.83,72.79,232.43,217.18,299.62,330.25l67.55-22.67Z"/>
      <path class="cls-21" d="M1634.05,1369.77c-44.99-78.93-120.62-148.56-176.15-193.07-60.2-48.25-110.36-78.19-110.86-78.48l1.85-3.12c.5.3,50.88,30.36,111.28,78.77,55.77,44.71,131.76,114.68,177.03,194.1l-3.15,1.8Z"/>
    </g>
    <g>
      <path class="cls-22" d="M1298.38,1375.35c61.01,31.97,23.1,127.21,102.08,129.41,78.99,2.16,74.17-4.27,100.86,37.68,0,0,5.27,34.87,33.26,48.15,110.41,52.41,316.46-75.37,221.52-203.37-6.86-9.24-18.86-15.39-32.33-21.48-73.13-33.03-106.62-4.53-141.95-111.21-35.34-106.71-152.72-.13-202.71-18.83-49.99-18.7-90.91-46.54-145.84-3.27-54.95,43.32,4.09,111,65.11,142.93Z"/>
      <g>
        <path class="cls-29" d="M1684.65,1501.85l3.44-2.95c-1.3-1.52-133.94-152.82-468.28-253.6l-1.31,4.34c333.09,100.4,464.86,250.7,466.15,252.21Z"/>
        <path class="cls-29" d="M1511.16,1314.09c55.42-27.69,71.98-57.25,72.66-58.49l-3.98-2.17c-.16.29-16.71,29.62-70.71,56.61l2.03,4.05Z"/>
        <path class="cls-29" d="M1490.46,1359.08c18.54-18.54,26.1-50.53,21.88-92.53-3.16-31.45-11.89-57.84-11.98-58.1l-4.3,1.43c.34,1.03,33.82,103.38-8.81,146l3.21,3.2Z"/>
        <path class="cls-29" d="M1403.99,1327.03c6.5-2.96,10.15-5.05,10.32-5.14l-2.28-3.91c-.77.45-77.65,44.27-165.76,17.07l-1.33,4.33c70.99,21.92,134.82-1.3,159.05-12.34Z"/>
        <path class="cls-29" d="M1332.48,1415.96c26.52-17.02,38.55-38.03,43.96-52.65,5.9-15.92,5.48-27.7,5.46-28.19l-4.53.19c.02.45,1.21,45.68-47.35,76.85l2.45,3.81Z"/>
      </g>
    </g>
  </g>
  <path class="cls-3" d="M1371.35,565.93c-248.63-1.1-140.07-114.55-101.01-113.45,39.05,1.1,42.72,41.62,71.29,22.48,28.56-19.14,54.69-59.72,94.09-28.82,39.4,30.9-24.87,66.8,35.92,71.43,60.8,4.63,90.48-43.12,112.03-3.84,21.55,39.28,35.79,15.41,67.98,17.72,32.19,2.31,29.88,33.76-10.65,33.85-40.52.09-259.26.67-269.65.63Z"/>
  <path class="cls-3" d="M2049.59,366.01c-200.09.49-135.16-98.81-97.47-97.87,37.69.94,41.23,35.9,68.8,19.38,27.57-16.52,52.8-51.55,90.82-24.9,38.02,26.65-24.02,57.65,34.65,61.63,58.68,3.98,87.34-37.23,108.13-3.34,20.79,33.89,34.54,13.29,65.61,15.28s28.83,29.12-10.29,29.21-250.23.58-260.26.6Z"/>
  <g>
    <g>
      <path class="cls-22" d="M2636.15,1471.82s112.66-519.03,276.52-489.3c163.85,29.73-165.78,334.43-192.96,486.35l-83.55,2.95Z"/>
      <path class="cls-29" d="M2682.9,1470.58c16.87-105.26,71.25-212.94,113.89-284.74,46.23-77.84,89-131.4,89.42-131.93l-3.32-2.66c-.43.53-43.38,54.33-89.76,132.42-42.83,72.11-97.46,180.31-114.43,286.24l4.2.68Z"/>
    </g>
    <g>
      <path class="cls-9" d="M3016.44,1373.51c-55.18,36.88-9.09,124.24-84.54,134.45-75.46,10.16-71.5,3.51-92.78,46.43,0,0-1.48,33.95-26.93,49.54-100.41,61.53-331.71.14-233.08-172.15,5.51-9.62,16.49-16.67,28.78-23.9,66.68-39.14,101.69-15.26,124.61-121.1,22.92-105.86,146.3-15.78,192.28-38.81,45.98-23.04,82.33-53.91,139.39-18.07,57.08,35.87,7.46,106.77-47.74,143.61Z"/>
      <g class="cls-38">
        <path class="cls-21" d="M2659.33,1534.3l-3.59-2.47c1.09-1.59,112.66-160.14,422.66-290.95l1.7,4.02c-308.84,130.33-419.68,287.83-420.77,289.41Z"/>
        <path class="cls-21" d="M2806.31,1336.63c-55.93-20.85-74.83-47.47-75.61-48.59l3.59-2.49c.18.26,19.05,26.67,73.55,46.99l-1.53,4.09Z"/>
        <path class="cls-21" d="M2830.75,1377.61c-19.66-15.86-30.19-45.74-30.44-86.41-.19-30.46,5.46-56.63,5.52-56.9l4.26.93c-.22,1.02-21.8,102.51,23.4,138.98l-2.74,3.4Z"/>
        <path class="cls-21" d="M2910.31,1338.05c-6.53-2.17-10.24-3.8-10.41-3.87l1.78-3.98c.78.35,78.93,34.46,160.56-.63l1.72,4.01c-65.77,28.28-129.3,12.57-153.65,4.48Z"/>
        <path class="cls-21" d="M2987.94,1415.92c-27.15-13.59-40.83-32.49-47.52-45.94-7.28-14.65-8.09-25.98-8.12-26.45l4.36-.28c.03.44,3.52,43.89,53.24,68.78l-1.96,3.9Z"/>
      </g>
    </g>
    <path class="cls-9" d="M2727.4,1199.9c14.42-6.87,20.89-4.33,23.59,1.33,2.69,5.65.58,12.28-13.84,19.15-26.27,12.51-43.85,8.32-43.85,8.32,0,0,7.44-16.1,34.1-28.79Z"/>
    <path class="cls-22" d="M2820.44,927.11c4.78-19.63,12.44-23.96,20.13-22.08,7.7,1.87,12.51,9.23,7.73,28.86-8.7,35.76-26.84,49.66-26.84,49.66,0,0-9.85-20.16-1.02-56.44Z"/>
    <path class="cls-9" d="M2675.4,1188.95c4.8-14.24,10.76-16.95,16.34-15.06,5.58,1.88,8.67,7.64,3.87,21.88-8.75,25.93-23.08,35.06-23.08,35.06,0,0-6-15.57,2.88-41.88Z"/>
  </g>
  <g>
    <path class="cls-9" d="M1498.59,845.83c-7.71,11.14-13.54,12-17.91,8.98-4.37-3.02-5.61-8.79,2.1-19.92,14.04-20.29,28.74-24.63,28.74-24.63,0,0,1.32,14.98-12.93,35.57Z"/>
    <g>
      <path class="cls-9" d="M1524.45,1058.77l-2.57.05c0-.39-.96-40.17-20.3-96.55-17.85-52.02-55.45-129.21-133.25-201.56l1.75-1.88c78.23,72.75,116.03,150.39,133.97,202.72,19.45,56.73,20.4,96.83,20.4,97.23Z"/>
      <path class="cls-9" d="M1449.02,852.2l-2.29-1.15c41.72-83.24,1.65-174.75,1.24-175.67l2.34-1.05c.41.93,40.99,93.52-1.29,177.86Z"/>
      <path class="cls-9" d="M1406.26,814.87c-25.9,2.73-46.84-8.17-47.08-8.3l1.2-2.26c.27.14,27.1,14.08,57.19,5.85l.68,2.47c-4.07,1.11-8.09,1.83-11.99,2.24Z"/>
      <path class="cls-9" d="M1514.1,1001.77c-53-.44-98.14-21.5-134.15-62.61-1.25-1.42-2.43-2.77-2.76-3,0,0,.1.07.28.11l.55-2.5c.74.16,1.25.73,3.86,3.7,35.52,40.53,80.01,61.3,132.25,61.73l-.02,2.56Z"/>
      <path class="cls-9" d="M1437.14,982.12l-2.53-.41c5.53-34.36-21.92-81.13-22.2-81.6l2.2-1.31c.07.12,7.13,12.08,13.4,28.21,5.81,14.94,12.1,36.63,9.13,55.11Z"/>
      <path class="cls-9" d="M1365.13,746.66c14.77,10.75,16.64,17.43,13.51,21.72-3.12,4.29-10.05,4.58-24.82-6.17-26.91-19.58-34.26-36.82-34.26-36.82,0,0,18.27,1.4,45.58,21.27Z"/>
      <path class="cls-9" d="M1365.15,797.61c17.33,5.79,21.11,11.6,19.43,16.63-1.68,5.03-8.2,7.39-25.53,1.6-31.56-10.55-43.77-24.77-43.77-24.77,0,0,17.84-4.17,49.87,6.54Z"/>
      <path class="cls-9" d="M1419.14,891.02c7.43,11.33,6.05,17.06,1.61,19.97-4.44,2.91-10.25,1.91-17.68-9.42-13.54-20.63-12.05-35.88-12.05-35.88,0,0,14.39,4.39,28.12,25.33Z"/>
      <path class="cls-9" d="M1428.06,771.51c4.46,12.79,1.71,18.01-3.3,19.76-5.01,1.75-10.4-.64-14.86-13.44-8.11-23.31-2.96-37.73-2.96-37.73,0,0,12.88,7.76,21.12,31.41Z"/>
      <path class="cls-9" d="M1469.45,965.06c.68,13.53-3.42,17.77-8.72,18.04-5.3.27-9.8-3.54-10.48-17.07-1.24-24.65,7.77-37.04,7.77-37.04,0,0,10.18,11.07,11.44,36.08Z"/>
      <path class="cls-9" d="M1391.22,935.67c9.69,9.47,9.56,15.36,5.85,19.16-3.71,3.8-9.6,4.06-19.29-5.41-17.64-17.25-19.45-32.47-19.45-32.47,0,0,14.99,1.21,32.89,18.72Z"/>
      <path class="cls-9" d="M1454.6,663.44c6.1,17.22,3.85,23.78-1.15,25.55-5.01,1.77-10.88-1.92-16.97-19.14-11.1-31.37-7.41-49.74-7.41-49.74,0,0,14.27,11.5,25.53,43.33Z"/>
    </g>
  </g>
  <g>
    <path class="cls-28" d="M2442.22,746.88c.02-12.43,31.48-24.15,31.48-24.15,4.06.75,3.74,76.34,64.26,106.89,26,13.13,74.76,3.02,80.63.47.78-.34,21.84,54.77,21.84,54.77-10.64,4.62-10.05,8.41-43.7,7.36-90.08-2.81-139.31-39.67-154.52-145.33Z"/>
    <path class="cls-16" d="M2668.52,1574.76s-.91,17.47-12.87,22.08c-11.96,4.61-46.36,8.14-33.86,19.72,7.18,6.65,41.92,3.42,51.7,3.68,9.78.26,18.85,4.77,26.29-1.58,8.19-6.98,1.16-43.04,1.16-43.04,0,0-8.56,4.17-16.14,3.77-10.93-.58-16.28-4.64-16.28-4.64Z"/>
    <path class="cls-17" d="M2597.04,1124.4c-.58,4.72,5.61,144.74,6.28,149.61,15.23,109.76,27.7,221.7,36.8,274.78,3.26,18.98,18.77,33.22,37.57,34.48l10.1.68c20.33,1.37,37.32-15.67,36.39-36.49l-15.91-357.83-3.13-117.72s-101.27-3.33-108.11,52.5Z"/>
    <path class="cls-16" d="M2780.57,1577.78s-.91,17.47-12.87,22.08c-11.96,4.61-46.36,8.14-33.86,19.72,7.18,6.65,41.92,3.42,51.7,3.68,9.78.26,18.85,4.77,26.29-1.58,8.19-6.99,1.16-43.04,1.16-43.04,0,0-8.56,4.17-16.14,3.77-10.93-.58-16.28-4.64-16.28-4.64Z"/>
    <path class="cls-17" d="M2692.73,1047.39s-4.49,78.84,16.61,230.88c15.23,109.76,33.72,220.45,42.83,273.53,3.26,18.98,18.77,33.22,37.57,34.48l10.1.68c20.33,1.37,37.32-15.67,36.39-36.49l-15.91-357.83-3.13-117.72-124.47-27.53Z"/>
    <path class="cls-16" d="M2827.89,1137.57c-.5,9.51-58.17,11.74-129.3,7.6-71.14-4.14-107.19-18.17-106.69-27.68.5-9.51,26.58-24.78,108.51-6.77,69.59,15.3,127.99,17.34,127.49,26.85Z"/>
    <path class="cls-5" d="M2829.9,888.9c-1.26-10.67-5.35-20.81-11.96-29.28-13.82-17.73-44.08-43.32-104.33-45.27-133.93-4.34-119.97,148.27-121.72,303.14,0,0,111.88-12.45,236.13,17.74,0,0,10.68-171.62,1.88-246.33Z"/>
    <path class="cls-5" d="M2831.39,904.82l-40.76-11.53s-163.2,30.27-193.01,10.52c-35.1-23.25-14.82-69.08-14.82-69.08,0,0,34.08-10.48,98.2-19.14,6.02-.82,12.26-1.37,18.73-1.62,10.85-.41,21.61.7,32.25,1.51,101.4,7.78,99.41,89.34,99.41,89.34Z"/>
    <path class="cls-28" d="M2726.69,803.27l-6.4-22.82-1.86-6.64-10.96-39.06-2.62,38.49s-1.5,17.31-1.57,23.1c-.15,12.94-2.38,17.58-2.38,17.58-4.76,4.82-16.7,11.94-5.98,17.02,13.35,6.34,38.99-2.57,48.91-14.15-.07-.02-14.13-1.63-17.15-13.52Z"/>
    <path class="cls-17" d="M2597.04,1124.4s63.04-16.87,221.97,18.59l.61,23.02-220.51,1.81-2.07-43.42Z"/>
    <path class="cls-16" d="M2806.98,917.61c-3.08,6.66-20.34,5.5-38.56-2.59-18.22-8.09-30.49-20.04-27.41-26.7,3.08-6.66,20.34-5.5,38.56,2.59,18.22,8.09,30.49,20.04,27.41,26.7Z"/>
    <g>
      <path class="cls-10" d="M2684.83,713.05s-4.29,8.69-4.25,20.71c.03,12.01,17.56-13.9,17.56-13.9l-13.31-6.81Z"/>
      <ellipse class="cls-28" cx="2711.04" cy="748.06" rx="41.52" ry="34.44" transform="translate(1117.45 3065.34) rotate(-70.91)"/>
      <path class="cls-16" d="M2746.82,747.85l-15.98-5.05c-3.51-1.11-6.4-3.71-7.72-7.15-2.27-5.92-5.74-9.44-21.09-12-19.44-3.24-29.81-17.35-29.82-27.87-.01-10.74,11.29-15.69,19.97-8.79,8.68,6.9,6.99-6,16.57-5.36,17.9,1.19,18.4,15.28,32.74,17.77,18.8,3.27,49.36,24.35,26.73,53.98l-21.41-5.52Z"/>
      <path class="cls-1" d="M2709.61,745.99c-.15-.15-.24-.36-.21-.59.05-.38.39-.65.77-.61.23.03,5.51.16,6.96,6.11.09.37-.12.76-.5.85-.37.1-.68-.15-.85-.5-1.78-3.43-5.59-5.05-5.78-5.08-.16-.02-.29-.09-.4-.19Z"/>
      <path class="cls-1" d="M2710.78,755.37c-.75,1.49-2.24,2.25-3.32,1.7-1.08-.55-1.34-2.19-.59-3.68s2.24-2.25,3.32-1.7,1.34,2.19.59,3.68Z"/>
      <path class="cls-1" d="M2684.73,738.76c-.15-.06-.27-.21-.3-.42-.05-.35.15-.74.46-.87.18-.08,4.29-2.29,6.81,2.22.16.28.08.71-.18.96-.26.25-.56.17-.78-.05-2.18-2.19-5.5-1.92-5.65-1.85-.13.05-.25.05-.35.01Z"/>
      <path class="cls-1" d="M2689.53,747.05c-.13,1.66-1.21,2.93-2.42,2.84-1.21-.09-2.08-1.52-1.95-3.18.13-1.66,1.21-2.93,2.42-2.84,1.21.09,2.08,1.52,1.95,3.18Z"/>
      <path class="cls-10" d="M2768.22,753.37s-16.27,22.02-32.63,20.52c0,0,16.74-15.89-8.19-32.79,0,0,25.83,1.2,40.82,12.27Z"/>
      <path class="cls-28" d="M2742.92,762.17c-3.87,1.47-8.07-.13-9.39-3.59-1.32-3.46.75-7.45,4.62-8.92,3.87-1.47,8.07.13,9.39,3.59,1.32,3.46-.75,7.45-4.62,8.92Z"/>
      <path class="cls-10" d="M2727.4,741.1s-2.01,20.87-6.96,23.87c-4.95,3.01-32.73-.97-44.52-8.55h0c-2.91,13.07,3.96,26.55,16.45,31.38,4.13,1.6,8.56,2.51,13.11,2.65h0c9.29.27,18.77-1.64,24.17-9.2,1.64-2.3,1.57-18.54,1.57-18.54,0,0,.65-9.39,6.94-13.05,0,0-5-6.78-10.75-8.56Z"/>
      <path class="cls-16" d="M2696.1,685.97c-.54,0-1.14-.07-1.8-.22l.22-.91c4.43,1.06,5.54-2.42,5.59-2.57l.9.27s-1.09,3.44-4.91,3.44Z"/>
      <path class="cls-24" d="M2697.67,717.12s-4.98-2.65-9.68-6.58c-6.26-5.24-9.27-10.44-8.71-15.03.39-3.2,1.38-5.19,3.01-6.1,2.6-1.45,6.24.23,9.45,1.71.48.22.94.43,1.39.63l-.19.43c-.45-.2-.92-.41-1.4-.63-3.11-1.43-6.64-3.06-9.03-1.73-1.49.83-2.4,2.71-2.77,5.75-1.32,10.74,17.95,21.04,18.15,21.14l-.22.42Z"/>
      <path class="cls-24" d="M2748.73,704.84c-10.89-.74-18.02-4.78-22.09-8.04-4.41-3.54-6.22-6.85-6.29-6.99l.41-.22c.07.13,7.41,13.38,28,14.78l-.03.47Z"/>
      <path class="cls-28" d="M2691.57,774.17c-6.14,0-9.4-4.16-9.44-4.22-.24-.31-.18-.75.13-.99.31-.24.75-.18.99.13.21.27,5.12,6.46,14.64,2.18.35-.16.77,0,.93.35.16.36,0,.77-.35.93-2.6,1.17-4.9,1.61-6.9,1.61Z"/>
    </g>
    <path class="cls-28" d="M2557.72,969.31c-8.7-6.34,31.55-36.23,31.55-36.23,41.59,33.52,82.94,28.8,106.93,20.71,34.84-11.75,53.67-62.32,53.83-62.8,0,0,9.56-5.09,27.27,3.53,26.3,12.8,22.1,23.51,22.1,23.51-1.04,3.04-27.9,69.43-92.29,83.7-61.72,13.69-112.43-1.61-149.4-32.42Z"/>
    <g class="cls-38">
      <path class="cls-36" d="M2691.73,998.78c-3.06,0-5.88-.82-7.85-2.33-1.54-1.18-2.46-2.7-2.67-4.4-.56-4.61,4.28-8.99,11.01-9.96,4-.58,7.88.23,10.38,2.14,1.54,1.18,2.46,2.7,2.67,4.4.55,4.61-4.28,8.99-11.01,9.96h0c-.85.12-1.7.18-2.53.18ZM2694.77,984.14c-.73,0-1.48.05-2.24.16-5.33.77-9.5,4.19-9.1,7.48.16,1.37,1.07,2.33,1.81,2.89,2.04,1.56,5.29,2.2,8.7,1.71,5.33-.77,9.5-4.19,9.1-7.48-.16-1.37-1.07-2.33-1.81-2.89-1.58-1.21-3.9-1.87-6.46-1.87Z"/>
    </g>
    <path class="cls-28" d="M2478.94,748.56s9.13-41.38,2.35-53.1c-6.78-11.72-24.3-21.55-21.64-13.4,2.66,8.15,8.94,17.64,8.94,17.64,0,0-14.37-19.62-17.5-14.28-3.13,5.35,9.52,22.29,9.52,22.29,0,0-18.95-21.99-20.28-15.98-1.33,6.01,13.19,22.61,13.19,22.61,0,0-18.45-19.75-19.83-12.74-1.38,7.02,15.36,16.23,12.22,21.57-3.13,5.35-13.78,27.65.02,38.17l33-12.8Z"/>
    <path class="cls-28" d="M2466.71,731.49s-10.35-24.83-14.4-23.74c-4.06,1.09,2.47,26.74.88,33.84-1.59,7.09.02,12.35,5.64,12.47,5.63.12,13.98-9.48,7.88-22.57Z"/>
    <path class="cls-30" d="M2449.68,749.22c-1.1-4.65-.85-8.55.76-11.58,3.79-7.13.02-23.5-.02-23.66l1.13-.26c.16.69,3.91,16.96-.09,24.47-1.47,2.77-1.7,6.39-.66,10.76l-1.13.27Z"/>
    <path class="cls-30" d="M2470.49,731.43c-6.51-2.62-13.17-19.42-13.45-20.13l1.08-.43c.07.17,6.76,17.04,12.81,19.48l-.43,1.08Z"/>
  </g>
  <g>
    <path class="cls-31" d="M2459.42,1198.33h-308.37c-10.8,0-19.63-8.83-19.63-19.63h0c0-10.8,8.83-19.63,19.63-19.63h308.37c10.8,0,19.63,8.83,19.63,19.63h0c0,10.8-8.83,19.63-19.63,19.63Z"/>
    <path class="cls-31" d="M2221.88,1571.84h151.7c21.28,0,38.56,17.28,38.56,38.56v14.66h-213.83v-29.66c0-13,10.56-23.56,23.56-23.56Z"/>
    <rect class="cls-31" x="2292.76" y="1192.95" width="24.94" height="399.23"/>
    <g>
      <path class="cls-32" d="M2551.75,941.05c0,33.95-5.53,64.06-15.48,90.48-37.25,99.12-136.39,146-237.25,146-109.34,0-220.58-75.87-250.35-177.84-5.03-17.15-7.73-35.06-7.73-53.46,0-127.74,130.34-231.29,258.08-231.29s252.73,98.37,252.73,226.11Z"/>
      <path class="cls-32" d="M2209.7,571.93s186.82-5.55,191.36,0c4.54,5.55,11.33,15.33-36.26,17.84-31.82,1.68-31.89,111.5,33.15,147.35,65.04,35.86,74.77,56.42,74.77,56.42l-331.77-16.16s25.72-25.06,61.77-43.59c38.76-19.92,51.68-38.35,53.3-74.87,1.98-44.75,3.31-73.66-19.93-70.86-31.06,3.73-47.09-15.57-26.4-16.13Z"/>
      <path class="cls-34" d="M2171.74,1136.42s-26.24,27.9-18.2,34.56c8.03,6.66,194.97,36.18,296.94,0,0,0,15.87-2.54,9.82-15.79-6.05-13.25-15.86-25.68-15.86-25.68l-272.7,6.91Z"/>
      <path class="cls-15" d="M2308.87,881.72s-10.46-2.27-14.01,3.97c-3.55,6.23-3.4,19.83,7.01,18.7,10.41-1.13,17.21-17.57,7.01-22.67Z"/>
      <path class="cls-15" d="M2347.32,879.93s-10.46-2.27-14.01,3.97c-3.55,6.23-3.4,19.83,7.01,18.7,10.41-1.13,17.21-17.57,7.01-22.67Z"/>
      <path class="cls-15" d="M2385.84,872.24s-10.46-2.27-14.01,3.97c-3.55,6.23-3.4,19.83,7.01,18.7,10.41-1.13,17.21-17.57,7.01-22.67Z"/>
      <path class="cls-15" d="M2417.56,864.55s-10.46-2.27-14.01,3.97c-3.55,6.23-3.4,19.83,7.01,18.7,10.41-1.13,17.21-17.57,7.01-22.67Z"/>
      <path class="cls-15" d="M2453.25,849.89s-10.46-2.27-14.01,3.97c-3.55,6.23-3.4,19.83,7.01,18.7,10.41-1.13,17.21-17.57,7.01-22.67Z"/>
      <path class="cls-15" d="M2488.84,831.53s-10.46-2.27-14.01,3.97c-3.55,6.23-3.4,19.83,7.01,18.7,10.41-1.13,17.21-17.57,7.01-22.67Z"/>
      <path class="cls-15" d="M2268.62,879.93s-10.46-2.27-14.01,3.97c-3.55,6.23-3.4,19.83,7.01,18.7,10.41-1.13,17.21-17.57,7.01-22.67Z"/>
      <path class="cls-15" d="M2227.96,872.24s-10.46-2.27-14.01,3.97c-3.55,6.23-3.4,19.83,7.01,18.7,10.41-1.13,17.21-17.57,7.01-22.67Z"/>
      <path class="cls-15" d="M2188.93,864.55s-10.46-2.27-14.01,3.97c-3.55,6.23-3.4,19.83,7.01,18.7,10.41-1.13,17.21-17.57,7.01-22.67Z"/>
      <path class="cls-15" d="M2188.93,951.72s-10.46-2.27-14.01,3.97c-3.55,6.23-3.4,19.83,7.01,18.7,10.41-1.13,17.21-17.57,7.01-22.67Z"/>
      <path class="cls-15" d="M2121.82,927.57s-10.46-2.27-14.01,3.97c-3.55,6.23-3.4,19.83,7.01,18.7,10.41-1.13,17.21-17.57,7.01-22.67Z"/>
      <path class="cls-15" d="M2261.57,963.13s-10.46-2.27-14.01,3.97c-3.55,6.23-3.4,19.83,7.01,18.7,10.41-1.13,17.21-17.57,7.01-22.67Z"/>
      <path class="cls-15" d="M2326.18,963.13s-10.46-2.27-14.01,3.97c-3.55,6.23-3.4,19.83,7.01,18.7,10.41-1.13,17.21-17.57,7.01-22.67Z"/>
      <path class="cls-15" d="M2398.69,951.72s-10.46-2.27-14.01,3.97c-3.55,6.23-3.4,19.83,7.01,18.7,10.41-1.13,17.21-17.57,7.01-22.67Z"/>
      <path class="cls-15" d="M2469.24,926.56s-10.46-2.27-14.01,3.97c-3.55,6.23-3.4,19.83,7.01,18.7,10.41-1.13,17.21-17.57,7.01-22.67Z"/>
      <path class="cls-15" d="M2516.88,904.79s-8.79-1.91-11.78,3.33c-2.99,5.24-2.86,16.67,5.89,15.72,8.75-.95,14.46-14.77,5.89-19.05Z"/>
      <path class="cls-15" d="M2066.63,899.59s-8.35-1.81-11.18,3.17c-2.84,4.97-2.71,15.83,5.59,14.92,8.3-.9,13.73-14.02,5.59-18.09Z"/>
      <path class="cls-15" d="M2149.52,852.98s-10.46-2.27-14.01,3.97c-3.55,6.23-3.4,19.83,7.01,18.7,10.41-1.13,17.21-17.57,7.01-22.67Z"/>
      <path class="cls-15" d="M2115.22,838.32s-10.46-2.27-14.01,3.97c-3.55,6.23-3.4,19.83,7.01,18.7,10.41-1.13,17.21-17.57,7.01-22.67Z"/>
      <path class="cls-15" d="M2287.09,927.29c-138.45,0-221.78-73.12-222.62-73.87l1.51-1.69c.84.75,85.89,75.23,226.76,73.25,140.95-2.04,231.42-81.45,232.32-82.25l1.51,1.69c-.91.81-91.97,80.78-233.8,82.82-1.91.03-3.81.04-5.69.04Z"/>
      <path class="cls-15" d="M2286.18,957.08c-.64,0-1.29-.03-1.97-.1-8.46-.87-11.77-5.28-14.96-9.54-3.03-4.04-5.9-7.86-13.33-8.66-7.67-.82-10.62,3.37-14.04,8.23-3.07,4.37-6.56,9.32-14.08,9.9-15.13,1.16-20.67-11.03-23.83-21.77-.82-2.78-3.85-4.98-8.33-6.03-8.08-1.9-19.88.12-26.82,7.61-4.41,4.77-10.48,5.81-16.64,2.84-7.69-3.7-13.33-12.43-12.33-19.07.73-4.83-1.84-10.21-6.54-13.69-5.56-4.12-12.68-4.6-19.54-1.32-14.39,6.9-23.64,8.38-29.1,4.68-3.83-2.59-5.51-7.73-5-15.26.36-5.37-1.05-9.63-4.19-12.65-7.07-6.8-20.72-5.42-20.86-5.41l-.24-2.25c.6-.07,14.82-1.51,22.67,6.02,3.65,3.51,5.3,8.37,4.88,14.44-.45,6.67.9,11.12,4.01,13.23,4.66,3.17,13.44,1.58,26.85-4.84,7.64-3.66,15.6-3.09,21.87,1.54,5.37,3.97,8.29,10.19,7.43,15.85-.85,5.64,4.32,13.44,11.07,16.69,3.06,1.47,8.95,3.13,14-2.33,7.53-8.14,20.29-10.33,29-8.28,5.37,1.26,8.91,3.95,9.98,7.6,3.1,10.54,8.09,21.17,21.49,20.15,6.46-.5,9.35-4.6,12.4-8.95,3.51-4.99,7.13-10.15,16.13-9.18,8.41.9,11.71,5.3,14.9,9.55,3.04,4.05,5.91,7.88,13.38,8.65,7.52.78,11.91-3.55,16.55-8.12,4.75-4.68,9.74-9.46,18.15-9.33,7.54.17,11.74,3.82,15.79,7.34,4.89,4.25,9.52,8.26,20.17,5.61,9.2-2.29,13.77-7.45,18.19-12.45,4.88-5.52,9.49-10.71,19.52-10.32,7.4.31,13.04,2.94,18.02,5.26,7.5,3.5,13.42,6.25,22.47.22,8.57-5.72,9.64-9.55,10.87-13.98.98-3.52,2.09-7.52,7.07-12.68,6.77-7,14.35-3.12,21.03.29,4.91,2.51,9.16,4.68,12.4,2.57,3.46-2.26,4.36-6.93,5.31-11.88,1.25-6.49,2.67-13.84,10.36-16.98,7.23-2.94,11.77.95,15.42,4.07,3.77,3.23,5.9,4.78,9.36,2.05,4.75-3.74,5.18-9.32,5.59-14.7.33-4.27.63-8.3,3-11.33l1.79,1.39c-1.94,2.49-2.22,6.19-2.52,10.11-.43,5.6-.92,11.95-6.45,16.31-5.09,4.01-8.89.76-12.24-2.11-3.51-3.01-7.15-6.13-13.09-3.69-6.56,2.67-7.8,9.1-8.99,15.31-1,5.19-2.03,10.56-6.3,13.35-4.34,2.82-9.59.15-14.67-2.45-6.57-3.35-12.77-6.53-18.37-.74-4.59,4.75-5.57,8.28-6.52,11.71-1.3,4.67-2.52,9.08-11.8,15.26-10.12,6.74-17.2,3.44-24.68-.05-5.02-2.34-10.21-4.76-17.15-5.05-8.98-.39-13.02,4.23-17.73,9.56-4.43,5.01-9.45,10.68-19.34,13.14-11.8,2.93-17.09-1.66-22.2-6.1-3.93-3.41-7.63-6.63-14.36-6.78-7.52-.08-11.89,4.13-16.51,8.68-4.43,4.36-8.99,8.87-16.4,8.87Z"/>
      <path class="cls-15" d="M2297.37,735.89c-39.75,0-68.74-15.96-69.19-16.21l3.34-5.92c.67.37,67.71,37.14,136.46-4.47l3.52,5.81c-26,15.73-51.76,20.78-74.12,20.78Z"/>
      <path class="cls-15" d="M2302.1,750.53c-48.96,0-85.31-23.35-85.85-23.71l1.24-1.89c.81.53,81.41,52.25,163.99-.01l1.21,1.92c-28.08,17.77-55.94,23.7-80.6,23.7Z"/>
      <path class="cls-34" d="M2536.28,1031.53c-37.25,99.12-136.39,146-237.25,146-109.34,0-220.58-75.87-250.35-177.84,14.25-4.08,42.69-6.21,70.09,27.01,38.7,46.91,65.9-3.13,107.25-5.3,41.36-2.18,23.41,48.81,63.54,48.81s13.35-25.74,52.23-28.17c38.89-2.42,14,40.63,51.37,28.17,37.37-12.46,20.37-67.35,65.13-72.76,39.97-4.85,39.72,63.04,78,34.08Z"/>
      <path class="cls-34" d="M2326.99,590.87c-25.07,0-53.75-.63-82.01-1.43-8.63-.24-15.44-.43-19.26-.48-14.5-.17-20.37-3.33-22.75-5.94-1.83-2.02-1.73-3.81-1.71-4.01l2.26.17s-.02,1.11,1.25,2.44c1.74,1.82,6.78,4.91,20.97,5.07,3.84.04,10.66.24,19.3.48,43.69,1.23,146.01,4.1,156.02-4.56l1.48,1.71c-5.74,4.98-36.18,6.55-75.55,6.55Z"/>
    </g>
  </g>
  <g>
    <path class="cls-28" d="M2589.27,933.08s-4.09-38.16-16.41-47.94c-12.32-9.79-35.46-12.97-29.11-5.28,6.35,7.69,14.77,13.5,14.77,13.5,0,0-21.49-13.34-22.6-6.22-1.11,7.12,16.02,16.64,16.02,16.64,0,0-26.09-12.3-24.97-5.23,1.13,7.07,19.82,16.61,19.82,16.61,0,0-24.29-11.27-22.79-3.1,1.5,8.18,23.52,11.01,22.41,18.13-1.11,7.12-3.13,35.77,16.28,41.28l26.58-38.39Z"/>
    <path class="cls-30" d="M2568.69,903.35c-.82-4.49-7.92-7.67-7.99-7.7l.47-1.06c.32.14,7.73,3.46,8.66,8.55l-1.14.21Z"/>
    <path class="cls-30" d="M2565.12,917.1c-2.53-6.35-9.55-9.35-9.63-9.38l.45-1.07c.31.13,7.55,3.22,10.26,10.02l-1.08.43Z"/>
    <path class="cls-30" d="M2559.63,926.55c-.47-4.84-8.91-8.6-8.99-8.63l.47-1.06c.37.16,9.15,4.07,9.68,9.59l-1.16.11Z"/>
  </g>
  <path class="cls-30" d="M2550.27,887.33c-.78-.66-7.59-6.55-7.56-10,0-.69.28-1.28.8-1.71,5.73-4.69,23.16,5.27,23.9,5.7l-.58,1.01c-4.84-2.79-18.34-9.28-22.58-5.81-.25.2-.37.46-.37.82-.02,2.47,5.15,7.41,7.15,9.11l-.75.89Z"/>
  <path class="cls-13" d="M2025.37,748.88s-16.42,19.15-32.87.62c-16.44-18.52-33.24,4.73-53.89-4.28-20.65-9.02-18.96-40.12-18.96-40.12,0,0,55.93-53.75,66-71.28,10.07-17.52,39.71,115.06,39.71,115.06Z"/>
  <path class="cls-7" d="M1906.68,956.99c-.96,0-1.9-.14-2.78-.41-2.39-.74-4.59-2.07-6.93-3.48-2.28-1.37-4.63-2.79-7.4-3.83l.49-1.32c2.89,1.08,5.3,2.53,7.63,3.94,2.26,1.36,4.39,2.65,6.62,3.34,4.34,1.35,10.31-1.12,13.32-8.45l.07-.18,1.28-.94c4.16-3.05,7.75-5.68,9.57-10.78l1.33.47c-1.96,5.51-5.89,8.39-10.06,11.45l-.96.7c-2.76,6.54-7.77,9.49-12.19,9.49Z"/>
  <g>
    <path class="cls-35" d="M1906.51,895.9c53.64,73.87,0,155.4-40.05,116.72-44.7-62,40.05-116.72,40.05-116.72Z"/>
    <path class="cls-33" d="M1787.18,1576.19s.46,18.3,12.84,23.47c12.38,5.16,48.27,9.82,34.86,21.59-7.69,6.75-43.95,2.39-54.19,2.39-10.24,0-19.85,4.46-27.46-2.39-8.37-7.54,0-45.06,0-45.06,0,0,8.83,4.6,16.78,4.4,11.45-.3,17.17-4.39,17.17-4.39Z"/>
    <path class="cls-33" d="M1644.95,1576.19s.46,18.3,12.84,23.47c12.38,5.16,48.27,9.82,34.86,21.59-7.69,6.75-43.96,2.39-54.19,2.39-10.24,0-19.85,4.46-27.46-2.39-8.37-7.54,0-45.06,0-45.06,0,0,8.83,4.6,16.78,4.4,11.45-.3,17.16-4.39,17.16-4.39Z"/>
    <path class="cls-5" d="M1879.23,1074.43s2.29,76.62-22.16,223.59c-17.65,106.1-38.49,213.02-48.72,264.28-3.66,18.34-19.08,31.74-37.36,32.47l-9.82.39c-19.76.79-35.8-16.18-34.36-36.36l24.81-346.79,6.12-114.14,121.49-23.45Z"/>
    <path class="cls-33" d="M1655.54,1141.85c1.13,9.32,53.85,8.19,118.41.02,64.56-8.17,114.81-22.16,113.68-31.48-1.13-9.33-53.21-10.46-117.76-2.29-64.56,8.17-115.46,24.42-114.33,33.75Z"/>
    <path class="cls-5" d="M1805.11,1129.15l-137.83,442.75c-5.77,18.53-22.45,31.23-41.46,31.56l-8.28.14c-19.56.34-34.51-17.75-30.95-37.43l75.39-416.02c1.1-4.95,4.74-8.88,9.51-10.25,25.85-7.46,136.15-29.05,133.61-10.74Z"/>
    <path class="cls-32" d="M1677.1,886.94s18.34-51.59,83.66-49.25c65.33,2.35,114.65,88.19,126.87,272.7,0,0-106.97-23.46-232.29,31.27,0,0-6.95-179.51,21.75-254.71Z"/>
    <path class="cls-32" d="M1631.22,883.84l46.28,29.62s118.96,11.9,150.54,6.17c31.58-5.73,36.49-28.95,36.49-28.95,0,0-30.04-41.21-87.21-51.44-5.37-.97-10.78-1.13-16.56-1.54-9.7-.69-19.39-.39-28.9.63-56.48,6.1-100.65,45.51-100.65,45.51Z"/>
    <path class="cls-4" d="M1743.51,1327.04l29.64-90.11c6.67-20.26,20.37-37.17,38.6-47.62l-1.15-2.01c-18.73,10.73-32.81,28.1-39.65,48.9l-29.64,90.11,2.2.72Z"/>
    <path class="cls-26" d="M1805.56,826.2c.36-.08,8.78-2.14,11.29-8.17,1.32-3.18.72-6.86-1.78-10.93-1.11-1.81-2.14-3.45-3.08-4.95-6.54-10.43-8.75-13.95-7.04-22.11l-.74-.16c-1.78,8.46.65,12.33,7.13,22.67.94,1.5,1.97,3.14,3.08,4.95,2.37,3.85,2.95,7.3,1.73,10.24-2.35,5.68-10.68,7.71-10.76,7.73l.18.74Z"/>
    <path class="cls-8" d="M1804.58,779.95s-2.89,13.1,5.78,26.81c8.68,13.71-.77,23.74-12.53,18.46-11.76-5.27-16.24,9.72-31.27,1.43-15.03-8.29,38.02-46.71,38.02-46.71Z"/>
    <path class="cls-35" d="M1735.1,837.88c6.5-.7,12.14-4.77,14.72-10.77l8.1-18.8,2.35-5.46,13.82-32.09-2.4,33.25-1.44,19.96-.41,5.69c-.33,4.64,2.91,8.75,7.49,9.57h.08c2.46,4.01,5.85,12.14-4.29,15.37-11.92,3.79-31.2-5.59-38.12-16.71.03,0,.07,0,.11-.01Z"/>
    <path class="cls-33" d="M1757.88,807.76c0,.18.02.37.03.55.79,10.72,12.26,15.73,12.26,15.73l.07-.06,1.44-19.96c-3.51-1.28-8.5-2.6-11.42-1.17-1.53.75-2.49,2.25-2.38,4.91Z"/>
    <path class="cls-35" d="M1806.83,776.08c0-21.29-13.99-38.54-31.24-38.54s-31.24,17.26-31.24,38.54,13.99,38.54,31.24,38.54,31.24-17.26,31.24-38.54Z"/>
    <path class="cls-35" d="M1748.52,781.9c3.54,3.38,8.49,3.73,11.05.77,2.57-2.95,1.78-8.08-1.76-11.46-3.54-3.38-8.49-3.73-11.05-.77-2.56,2.95-1.77,8.08,1.76,11.46Z"/>
    <path class="cls-27" d="M1792.41,801.03s-10.67.25-21.34-3.5c0,0-.89,10.52,10.67,11.22,6.72.41,10.67-7.72,10.67-7.72Z"/>
    <path class="cls-24" d="M1792.41,801.03s-2.58,2.14-8.61,2.12c-6.02-.03-12.74-5.62-12.74-5.62,0,0,12.86,3.53,21.34,3.5Z"/>
    <path class="cls-11" d="M1778.61,776.46c.21-.06.39-.21.47-.42.14-.36-.03-.77-.39-.92-.21-.09-5-2.55-9.2,2.05-.27.29-.26.73.02,1,.28.27.68.19,1.01-.02,3.26-2.19,7.46-1.78,7.64-1.71.15.06.31.06.45.03Z"/>
    <path class="cls-11" d="M1772.99,784.27c-.05,1.69.9,3.1,2.13,3.14,1.23.04,2.27-1.3,2.32-3,.05-1.7-.9-3.1-2.13-3.14-1.23-.04-2.27,1.3-2.32,3Z"/>
    <path class="cls-11" d="M1803.97,780.16c.21.03.44-.04.6-.21.27-.28.27-.73-.01-1-.17-.16-3.65-4.26-9.29-1.61-.35.17-.52.58-.36.94.16.36.55.44.94.36,3.85-.79,7.58,1.2,7.71,1.33.12.11.26.17.41.19Z"/>
    <path class="cls-11" d="M1795.8,785.24c-.7,1.55-.35,3.21.77,3.72,1.12.5,2.6-.34,3.29-1.89.69-1.55.35-3.21-.77-3.71-1.12-.51-2.6.34-3.29,1.89Z"/>
    <path class="cls-8" d="M1788.85,744.53s-.67,13.37-17.37,15.65c-16.7,2.28-28.22,9.35-25.98,21.38,2.24,12.03,29.16,36.99,9.38,46.66-19.78,9.67-15.57-8.36-37.02-4.18-21.45,4.18-25.32-24.46-10.55-41.09,14.77-16.62,8.79-60.61,64.17-58.66,55.38,1.95,35.09,46.14,35.09,46.14,0,0-17.75-11.13-17.72-25.9Z"/>
    <path class="cls-24" d="M1749.19,830.69c4.17-1.68,6.73-4.19,7.61-7.45,2.43-8.97-8.02-22.52-17.24-34.47-2.43-3.15-4.72-6.12-6.75-8.95-5.64-7.87-6.12-16.89-1.3-24.12,5.29-7.93,15.37-11.28,26.31-8.75,10.9,2.53,18.4.25,22.76-2.11,4.75-2.56,6.88-5.68,6.97-5.81l-.37-.25c-.09.13-8.69,12.51-29.26,7.74-11.13-2.58-21.39.84-26.79,8.93-4.86,7.28-4.36,16.72,1.31,24.63,2.04,2.84,4.33,5.82,6.76,8.97,9.16,11.87,19.54,25.33,17.16,34.08-.86,3.16-3.26,5.5-7.35,7.15l.17.42Z"/>
    <path class="cls-26" d="M1801.8,805.42c-1.66,0-3.28-.46-4.78-1.41-6.72-4.18-9.25-16.8-5.65-28.11h0c2.21-6.93,6.34-12.11,11.03-13.84,2.8-1.02,5.62-.79,8.12.8,6.72,4.16,9.25,16.76,5.64,28.09-2.21,6.95-6.34,12.14-11.03,13.86-1.11.4-2.23.6-3.34.6ZM1792.7,776.35c-3.43,10.73-1.15,22.62,5.06,26.5,2.1,1.31,4.49,1.51,6.89.66,4.3-1.59,8.11-6.45,10.19-12.98,3.43-10.75,1.16-22.64-5.05-26.5-2.11-1.31-4.48-1.53-6.9-.66-4.3,1.59-8.11,6.43-10.19,12.98h0Z"/>
    <g class="cls-44">
      <path class="cls-24" d="M1755.23,768.55c-2.51,11.01,1.5,22.82,8.95,26.39,7.45,3.57,15.52-2.46,18.03-13.46,2.51-11-1.5-22.82-8.95-26.39-7.45-3.57-15.52,2.46-18.02,13.46Z"/>
    </g>
    <g class="cls-44">
      <path class="cls-24" d="M1791.08,776.83c-2.51,11.06.83,23.04,7.47,26.78,6.64,3.73,14.06-2.2,16.57-13.26,2.51-11.06-.83-23.04-7.47-26.78-6.64-3.73-14.06,2.2-16.58,13.26Z"/>
    </g>
    <path class="cls-26" d="M1769.44,796.32c-1.68,0-3.36-.38-4.98-1.17-8.22-3.84-12.67-16.54-9.92-28.31h0c1.58-6.83,5.23-12.1,10.03-14.43,3.35-1.61,6.84-1.63,10.15-.08,8.21,3.86,12.66,16.56,9.93,28.31-1.59,6.85-5.25,12.12-10.06,14.45-1.69.8-3.42,1.23-5.13,1.23ZM1769.73,752.58c-1.54,0-3.07.36-4.56,1.09-4.35,2.13-7.83,7.17-9.29,13.5h0c-2.59,11.15,1.52,23.15,9.16,26.74,2.9,1.33,6,1.31,8.92-.06,4.36-2.11,7.85-7.17,9.32-13.52,2.58-11.15-1.53-23.15-9.16-26.74-1.44-.66-2.91-1-4.39-1Z"/>
    <path class="cls-26" d="M1792.55,780.95c-.29,0-.58-.1-.82-.3h0c-.14-.12-3.51-2.75-9.31-1.65-.68.1-1.39-.32-1.53-1.02-.14-.7.32-1.39,1.02-1.51,7.01-1.47,11.28,2.03,11.47,2.17.54.46.62,1.29.16,1.83-.25.32-.62.48-.99.48Z"/>
    <path class="cls-33" d="M1630.56,884.86c-1.61,4.66,10.5,13.38,27.04,19.48,16.54,6.1,31.24,7.27,32.85,2.61,1.61-4.66-10.5-13.38-27.03-19.48-16.54-6.1-31.24-7.27-32.85-2.61Z"/>
    <path class="cls-5" d="M1707.45,1131.74s128.85-24.61,170.62-13l-20.03,29.69-74.47,4.22-76.12-20.9Z"/>
    <path class="cls-35" d="M1744.07,1046.06l.55-33.82c.08-4.62-3.48-8.5-8.09-8.83-23.44-1.68-39.86-8.95-48.85-21.66-12.48-17.66-11.17-45.08-7.69-64.09,1.78-9.73-1.43-16.24-13.19-22.48,0,0-10.11-5.56-22.58-7.69-5-.85-9.95,1.16-11.24,6.06-2.02,7.67-4.63,19.6-5.87,33.64-2.96,33.35,3.47,62.36,18.6,83.89,18.57,26.43,48.5,41.05,89.05,43.54,4.98.3,9.23-3.57,9.31-8.56Z"/>
    <g class="cls-38">
      <path class="cls-2" d="M1655.03,1001.83c-2.61-.79-5.13-2.58-7.11-5.03-4.18-5.19-4.58-11.82-.89-14.79,1.85-1.49,4.39-1.85,7.16-1.01,2.61.79,5.13,2.58,7.11,5.03,4.18,5.19,4.58,11.82.89,14.79-1.2.96-2.68,1.45-4.33,1.45-.9,0-1.85-.15-2.83-.44ZM1648.46,983.77c-2.67,2.15-2.1,7.46,1.23,11.6h0c1.69,2.1,3.82,3.62,6,4.29,2.02.61,3.82.4,5.07-.61,2.67-2.15,2.1-7.46-1.23-11.6-1.69-2.1-3.82-3.62-6-4.29-.76-.23-1.48-.34-2.16-.34-1.13,0-2.13.32-2.91.95Z"/>
    </g>
    <path class="cls-8" d="M1906.51,922.58s-235.68,387.15-260.62,383.97c-24.94-3.17-14.57-32.01,4.98-75.96,19.55-43.95,182.73-346.47,182.73-346.47l72.91,38.46Z"/>
    <polygon class="cls-21" points="1947.2 864.83 1906.51 922.58 1833.6 884.13 1866.28 822.15 1947.2 864.83"/>
    <path class="cls-6" d="M1947.2,864.83s78.47-35.26,79.7-92.65c1.24-57.39-41.25-138.36-41.25-138.36,0,0-34.81,70.52-74.45,72.81-39.64,2.3-44.92,115.52-44.92,115.52l80.92,42.68Z"/>
    <path class="cls-35" d="M1938.95,922.64s14.37-13.27,2.17-26.3c-15.55-16.6-50.84-22.38-41.13-11.73,8.61,9.45,16.34,14.35,16.34,14.35,0,0-31.92-20.53-34.53-10.45-2.61,10.08,31.77,32.08,31.77,32.08,0,0-40.98-21.8-40.36-11.47.62,10.33,31.71,30.5,31.71,30.5,0,0-38.9-23.46-37.9-11.49,1,11.98,23.57,20.03,32.36,25.63,8.3,5.29,14.4,1.65,18.93-6.72,0,0,9.36-5.72,10.93-11.93.6-2.38,3.72-3.15,4.82-4.49,2.1-2.56,4.91-7.98,4.91-7.98Z"/>
    <g>
      <path class="cls-35" d="M1727.93,1001.27s8.23-24.92,22.33-31.02c14.1-6.1,36.72-3.24,28.78,2.4-7.94,5.64-20.07,10.04-20.07,10.04,0,0,26.36-8.19,25.6-1.19-.75,6.99-23.75,13.89-23.75,13.89,0,0,32.14-7.24,29.29-.87-2.85,6.37-27.31,11.7-27.31,11.7,0,0,30.17-5.54,26.69,1.78-3.49,7.33-24.96,4.42-25.72,11.41-.75,6.99-6.12,34.52-25.81,34.79l-10.04-52.95Z"/>
      <path class="cls-7" d="M1749.58,988.48c1.91-4.03,9.41-5.22,9.48-5.23l-.17-1.12c-.34.05-8.17,1.3-10.34,5.87l1.02.49Z"/>
      <path class="cls-7" d="M1749.45,1002.35c4-5.34,11.38-6.39,11.45-6.4l-.15-1.12c-.32.04-7.93,1.13-12.21,6.85l.91.68Z"/>
      <path class="cls-7" d="M1752.23,1012.65c1.67-4.45,10.58-5.85,10.67-5.86l-.17-1.12c-.39.06-9.66,1.52-11.56,6.58l1.06.4Z"/>
    </g>
  </g>
</svg>